<svg width="215" height="64" viewBox="0 0 215 64" fill="none" xmlns="http://www.w3.org/2000/svg">
<g opacity="0.07">
<path d="M64.9502 26.0416C74.7426 2.6523 116.137 23.8437 140.173 23.7152C149.685 23.6642 158.35 20.9199 167.77 18.5497C184.946 14.2262 202.189 10.6999 214.358 23.859C214.358 23.859 202.515 19.8872 188.839 20.1329C173.112 20.4152 158.126 31.0339 137.503 29.4547C112.323 27.528 81.5677 8.36124 65.9895 26.1548L64.9502 26.0416Z" fill="url(#paint0_linear_12151_1001)"/>
<path d="M165.021 16.8627C165.371 16.773 165.722 16.6843 166.075 16.5956C169.107 15.8321 172.142 15.094 175.15 14.468C137.887 -13.2366 119.379 5.79352 105.604 14.6067C138.607 -1.42115 151.056 8.60721 165.021 16.8627Z" fill="url(#paint1_linear_12151_1001)"/>
<path d="M4.92359 53.4446C3.3625 52.626 2.15137 51.4913 1.29124 50.0376C0.430063 48.5849 0 46.913 0 45.0219C0 44.2318 0.0874873 43.4 0.262464 42.5242L1.83831 34.6938C2.27575 32.4368 3.12217 30.4264 4.37653 28.6617C5.63088 26.8981 7.19934 25.5228 9.08087 24.535C10.9624 23.5471 13.0263 23.0537 15.2736 23.0537H18.8184C20.8602 23.0537 22.6479 23.4554 24.1795 24.2597C25.711 25.0641 26.9 26.1997 27.7465 27.6667C28.5918 29.1347 29.0156 30.827 29.0156 32.7456C29.0156 33.7335 28.9133 34.6785 28.7088 35.5818H21.3124C21.4874 34.7642 21.5748 34.0302 21.5748 33.3808C21.5748 32.083 21.2249 31.138 20.5239 30.5446C19.824 29.9523 18.7436 29.6557 17.2858 29.6557H15.535C12.0333 29.6557 9.91781 31.4907 9.18944 35.1577L7.70108 42.565C7.55457 43.3266 7.48184 43.9199 7.48184 44.3429C7.48184 46.8263 8.91116 48.068 11.7709 48.068H13.5649C15.3737 48.068 16.7957 47.5889 17.8318 46.6286C18.8669 45.6693 19.589 44.1594 19.9979 42.0991H27.4376C26.6502 46.1066 25.0449 49.2037 22.6236 51.3894C20.2014 53.5761 17.2552 54.67 13.7831 54.67H10.2382C8.25658 54.672 6.48468 54.2632 4.92359 53.4446Z" fill="#00162E"/>
<path d="M30.3964 53.0654C29.0683 51.9929 28.4053 50.5402 28.4053 48.7062C28.4053 48.1139 28.4633 47.5777 28.5803 47.0975C28.9882 45.0943 30.0096 43.5213 31.6434 42.3785C33.2772 41.2357 35.3632 40.6638 37.9015 40.6638H44.1163L44.3355 39.4363C44.364 39.3242 44.3798 39.1682 44.3798 38.9704C44.3798 38.3506 44.1753 37.8562 43.7674 37.4892C43.3584 37.1232 42.805 36.9387 42.1041 36.9387H41.0974C40.31 36.9387 39.6459 37.1293 39.1063 37.5106C38.5655 37.8919 38.1945 38.421 37.99 39.0979H30.9003C31.6297 36.643 32.8693 34.7662 34.6201 33.4685C36.3709 32.1707 38.6319 31.5213 41.4031 31.5213H42.6722C45.4139 31.5213 47.5146 32.135 48.9745 33.3624C50.4334 34.5899 51.1628 36.3606 51.1628 38.6748C51.1628 39.4649 51.0753 40.312 50.9003 41.2143L50.0254 45.7855C49.9084 46.2657 49.8505 46.703 49.8505 47.0975C49.8505 47.5206 49.9527 47.8315 50.1572 48.0283C50.3606 48.2261 50.6674 48.3249 51.0764 48.3249H51.908L50.7696 54.039H47.4872C46.4953 54.039 45.6637 53.8269 44.9922 53.4039C44.3208 52.9808 43.8391 52.3742 43.5481 51.5841C42.7892 52.6566 41.8848 53.4395 40.835 53.9329C39.7851 54.4264 38.5444 54.6741 37.1151 54.6741H35.8017C33.5249 54.6731 31.7235 54.1368 30.3964 53.0654ZM36.1728 49.0019C36.567 49.3128 37.1425 49.4678 37.9015 49.4678H38.8638C39.9147 49.4678 40.8044 49.1996 41.5338 48.6634C42.2632 48.1282 42.7302 47.3238 42.9347 46.2504L43.1971 44.9801H38.7774C37.815 44.9801 37.0413 45.2126 36.4574 45.6784C35.8734 46.1443 35.5825 46.8151 35.5825 47.6888C35.5825 48.2546 35.7785 48.6919 36.1728 49.0019Z" fill="#00162E"/>
<path d="M70.1547 38.335H67.3097C66.0259 38.335 64.9528 38.7234 64.0927 39.4992C63.2315 40.276 62.6549 41.3688 62.364 42.7798L60.0883 54.0386H52.9985L55.6242 41.2985C56.2367 38.3074 57.5131 36.0361 59.4537 34.4835C61.3943 32.9318 64.0115 32.155 67.3097 32.155H71.3795L70.1547 38.335Z" fill="#00162E"/>
<path d="M75.6256 23.6904H91.3366C93.7283 23.6904 95.5888 24.2409 96.9169 25.3409C98.244 26.4419 98.9081 28.0078 98.9081 30.0396C98.9081 30.4912 98.8933 30.8439 98.8638 31.0978L98.8206 31.5208C98.6456 33.0449 98.1565 34.4141 97.3544 35.6262C96.5512 36.8393 95.4939 37.7844 94.1816 38.4623C95.1155 38.97 95.8291 39.6622 96.3256 40.5359C96.821 41.4106 97.0698 42.4402 97.0698 43.6258C97.0698 44.106 96.997 44.7258 96.8505 45.4884L96.6755 46.2499C96.1791 48.7047 95.0122 50.6172 93.1739 51.9853C91.3356 53.3545 89.0008 54.0385 86.1717 54.0385H69.5415L75.6256 23.6904ZM86.1285 48.0289C86.9454 48.0289 87.6822 47.7821 88.3389 47.2877C88.9955 46.7943 89.4108 46.1102 89.5858 45.2345L89.7608 44.3884C89.8188 44.0499 89.8483 43.8104 89.8483 43.6686C89.8483 42.9917 89.6217 42.4698 89.1695 42.1028C88.7173 41.7368 88.1407 41.5523 87.4408 41.5523H79.3001L77.9868 48.0278H86.1285V48.0289ZM87.9235 35.8382C88.7404 35.8382 89.4625 35.6058 90.0897 35.1399C90.7168 34.674 91.1185 34.0042 91.2934 33.1295L91.4252 32.3252C91.4832 31.9867 91.5127 31.7614 91.5127 31.6483C91.5127 30.9999 91.3008 30.4994 90.8781 30.1456C90.4544 29.7929 89.8936 29.6165 89.1937 29.6165H81.7098L80.4849 35.8382H87.9235Z" fill="#00162E"/>
<path d="M101.402 52.6426C99.8561 51.2877 99.0835 49.3976 99.0835 46.9703C99.0835 46.1517 99.171 45.277 99.346 44.3462L99.9152 41.4255C100.586 38.1235 101.884 35.6483 103.81 33.9968C105.736 32.3463 108.332 31.5205 111.6 31.5205H113.306C116.135 31.5205 118.324 32.1974 119.871 33.5523C121.417 34.9071 122.19 36.8115 122.19 39.2663C122.19 40.0564 122.102 40.9168 121.927 41.8486L121.315 44.7693C120.644 48.0703 119.352 50.5466 117.442 52.1981C115.531 53.8486 112.941 54.6743 109.674 54.6743H107.967C105.137 54.6733 102.949 53.9964 101.402 52.6426ZM106.13 46.2934C106.13 47.9867 107.092 48.8329 109.018 48.8329H109.893C112.256 48.8329 113.7 47.5779 114.225 45.066L115.013 41.1299C115.1 40.7068 115.144 40.3255 115.144 39.9871C115.144 38.2662 114.166 37.4048 112.212 37.4048H111.337C110.17 37.4048 109.222 37.7218 108.492 38.357C107.763 38.9921 107.281 39.9167 107.048 41.1299L106.261 45.066C106.173 45.5176 106.13 45.9264 106.13 46.2934Z" fill="#00162E"/>
<path d="M126.218 52.6626C124.672 51.3231 123.899 49.4391 123.899 47.0118C123.899 46.3063 124.001 45.4174 124.206 44.3449L126.656 32.1543H133.703L131.165 44.8944C131.106 45.1482 131.077 45.5152 131.077 45.9954C131.077 47.6602 131.996 48.4931 133.835 48.4931H134.229C135.338 48.4931 136.248 48.1903 136.964 47.5827C137.679 46.9761 138.152 46.08 138.386 44.8954L140.924 32.1553H147.971L145.433 44.769C144.761 48.07 143.47 50.5462 141.56 52.1978C139.649 53.8483 137.074 54.674 133.836 54.674H132.786C129.952 54.673 127.764 54.0032 126.218 52.6626Z" fill="#00162E"/>
<path d="M160.528 31.5205H162.147C164.889 31.5205 167.034 32.1974 168.58 33.5523C170.126 34.9071 170.899 36.7972 170.899 39.2245C170.899 39.8739 170.797 40.7486 170.592 41.8486L168.141 54.0392H161.095L163.633 41.2991C163.721 40.876 163.765 40.4948 163.765 40.1563C163.765 38.5476 162.816 37.7433 160.92 37.7433H160.308C157.944 37.7433 156.543 38.9289 156.106 41.2991L153.568 54.0392H146.478L149.016 41.4255C150.389 34.8225 154.225 31.5205 160.528 31.5205Z" fill="#00162E"/>
<path d="M183.329 27.7531L182.454 32.1551H188.055L186.917 37.9966H181.228L179.871 44.727C179.784 45.094 179.74 45.4467 179.74 45.7852C179.74 46.6884 180.031 47.3164 180.615 47.6691C181.197 48.0219 182.044 48.1982 183.153 48.1982H185.297L184.115 54.0397H181.227C178.426 54.0397 176.281 53.4617 174.794 52.3046C173.306 51.1475 172.562 49.4409 172.562 47.1829C172.562 46.3082 172.665 45.4192 172.869 44.516L176.283 27.7541H183.329V27.7531Z" fill="#00162E"/>
<path d="M186.044 57.1706H188.188C188.975 57.1706 189.668 57.0157 190.266 56.7048C190.864 56.3938 191.441 55.8586 191.995 55.0961L193.571 52.8522L188.975 32.1543H196.459L197.947 41.1275L198.472 46.4603L201.186 41.1275L206.219 32.1543H214.359L200.705 54.0368C199.217 56.4631 197.882 58.3328 196.7 59.6449C195.519 60.9569 194.308 61.8805 193.068 62.4178C191.827 62.953 190.391 63.2221 188.757 63.2221H184.818L186.044 57.1706Z" fill="#00162E"/>
</g>
<defs>
<linearGradient id="paint0_linear_12151_1001" x1="64.9506" y1="22.1222" x2="214.358" y2="22.1222" gradientUnits="userSpaceOnUse">
<stop stop-color="#2563EB"/>
<stop offset="1" stop-color="#39C1F0"/>
</linearGradient>
<linearGradient id="paint1_linear_12151_1001" x1="105.603" y1="8.43113" x2="175.15" y2="8.43113" gradientUnits="userSpaceOnUse">
<stop stop-color="#2563EB"/>
<stop offset="1" stop-color="#39C1F0"/>
</linearGradient>
</defs>
</svg>
