<svg width="50" height="52" viewBox="0 0 50 52" fill="none" xmlns="http://www.w3.org/2000/svg">
<g filter="url(#filter0_d_11910_517)">
<path d="M19.8274 14.9783V6.17479C19.8274 4.71048 17.3188 3.52844 14.2239 3.52844C11.1291 3.52844 8.62048 4.71048 8.62048 6.17479V15.8869C5.72392 15.9928 3.44806 17.1307 3.44806 18.5244V41.6624C1.4222 42.0593 -0.000213623 43.0032 -0.000213623 44.1058V48.5164C-0.000213623 49.9807 2.50841 51.1628 5.60323 51.1628C8.69806 51.1628 11.2067 49.9807 11.2067 48.5164V46.7522C11.2067 48.2165 13.7153 49.3985 16.8101 49.3985C19.905 49.3985 22.4136 48.2165 22.4136 46.7522L22.8446 35.2847L19.8274 14.9783Z" fill="#F29C1F"/>
<path d="M47.006 11.7808C46.944 11.6855 45.7465 9.93539 42.2646 9.13443C42.7048 8.7641 43.0615 8.30083 43.3105 7.77633C43.5594 7.25183 43.6946 6.67848 43.7069 6.09553C43.7069 4.0155 41.9776 2.19922 39.5957 1.77757C39.373 1.74341 39.1461 1.79978 38.9635 1.93461C38.7808 2.06944 38.657 2.27203 38.6185 2.49906C38.58 2.72609 38.6298 2.95952 38.7573 3.14944C38.8849 3.33936 39.0799 3.47069 39.3009 3.51534C40.8509 3.79321 41.9827 4.87557 41.9827 6.09553C41.9827 7.54044 40.4526 8.72777 38.5345 8.74189C37.7797 8.7509 37.037 8.54801 36.3871 8.15528C36.1917 8.03374 35.9571 7.99659 35.735 8.05201C35.5129 8.10743 35.3213 8.25088 35.2026 8.45079C35.0838 8.6507 35.0475 8.8907 35.1017 9.118C35.1558 9.3453 35.296 9.54128 35.4914 9.66282C36.4047 10.2159 37.4473 10.5058 38.5086 10.5017C38.5172 10.5017 38.5233 10.5061 38.531 10.5061C43.8871 10.5061 45.5345 12.7114 45.5793 12.7705C45.7076 12.9642 45.9058 13.0979 46.1303 13.142C46.3549 13.1862 46.5874 13.1373 46.7767 13.006C46.966 12.8748 47.0966 12.672 47.1398 12.4422C47.183 12.2124 47.1343 11.9745 47.006 11.7808Z" fill="#F3D55B"/>
<path d="M38.9568 45.8701H22.4137V35.2847C22.4137 33.8204 19.9051 32.6383 16.8102 32.6383C16.0872 32.6353 15.3655 32.7033 14.6551 32.8412V23.235C15.9107 20.2034 17.6596 17.4116 19.8275 14.9784V14.9695C21.627 12.9116 23.7695 11.1972 26.1551 9.90619V9.89737C26.8921 10.3561 27.7404 10.5942 28.6033 10.5854H33.4309C34.2973 10.5916 35.1482 10.3503 35.8878 9.88855C37.7671 10.8412 46.2413 15.8164 49.3016 29.1099C52.7499 44.1059 42.4051 45.8701 38.9568 45.8701Z" fill="#A56A43"/>
<path d="M38.9569 43.2237C38.7283 43.2237 38.509 43.1308 38.3473 42.9653C38.1856 42.7999 38.0948 42.5755 38.0948 42.3416C38.0948 42.1076 38.1856 41.8833 38.3473 41.7178C38.509 41.5524 38.7283 41.4595 38.9569 41.4595C39.5802 41.4595 42.7715 41.3492 44.4534 39.1757C45.2488 38.0257 45.6729 36.6502 45.6664 35.2414C45.6948 34.7571 46.0957 34.3858 46.569 34.4025C46.6821 34.4081 46.793 34.4364 46.8954 34.4858C46.9978 34.5352 47.0897 34.6048 47.1658 34.6905C47.242 34.7763 47.3008 34.8766 47.3391 34.9856C47.3774 35.0947 47.3942 35.2104 47.3888 35.3261C47.3815 37.1036 46.8277 38.8337 45.806 40.2712C43.6302 43.0817 39.719 43.2237 38.9569 43.2237Z" fill="#FDD7AD"/>
<path d="M39.6548 1.03208C39.6635 2.97273 39.2841 7.2069 36.2497 9.63272C36.136 9.72794 36.0149 9.8135 35.8876 9.88853C35.148 10.3502 34.2971 10.5916 33.4307 10.5854H28.6031C27.7402 10.5948 26.892 10.3564 26.1548 9.89735C26.0259 9.81723 25.9021 9.72884 25.7841 9.63272C22.7497 7.2069 22.379 2.97273 22.379 1.03208C22.3797 0.887601 22.415 0.745513 22.482 0.618301C22.5489 0.491089 22.6454 0.382647 22.7628 0.302505C22.8803 0.222364 23.0152 0.172976 23.1557 0.158682C23.2962 0.144388 23.438 0.165626 23.5686 0.220529C24.6721 0.696872 25.0428 1.76423 26.7152 1.76423C28.8617 1.76423 28.8617 0 31.0083 0C33.1548 0 33.1635 1.76423 35.3186 1.76423C36.991 1.76423 37.3617 0.688051 38.4652 0.220529C38.5958 0.165626 38.7376 0.144388 38.8781 0.158682C39.0186 0.172976 39.1535 0.222364 39.271 0.302505C39.3884 0.382647 39.4849 0.491089 39.5518 0.618301C39.6188 0.745513 39.6541 0.887601 39.6548 1.03208Z" fill="#805333"/>
<path d="M31.422 10.5697C32.4256 9.12656 33.1807 7.51854 33.6548 5.81508C33.7165 5.58931 33.8633 5.39789 34.063 5.28292C34.2627 5.16794 34.4988 5.13884 34.7194 5.20201C34.9401 5.26517 35.1271 5.41544 35.2395 5.61974C35.3518 5.82405 35.3803 6.06566 35.3186 6.29142C34.8484 7.90686 34.1669 9.44983 33.2927 10.8784L36.172 13.6306C36.3389 13.7909 36.4368 14.0124 36.444 14.2465C36.4513 14.4806 36.3674 14.708 36.2108 14.8788C36.0542 15.0496 35.8377 15.1497 35.6089 15.1572C35.3802 15.1646 35.1579 15.0788 34.991 14.9185L31.8961 11.9634V14.8744C31.8961 15.1084 31.8053 15.3327 31.6436 15.4982C31.482 15.6636 31.2627 15.7565 31.0341 15.7565C30.8054 15.7565 30.5862 15.6636 30.4245 15.4982C30.2628 15.3327 30.172 15.1084 30.172 14.8744V11.9634L27.0858 14.9185C26.9189 15.0788 26.6966 15.1646 26.4678 15.1572C26.2391 15.1497 26.0226 15.0496 25.866 14.8788C25.7094 14.708 25.6255 14.4806 25.6327 14.2465C25.64 14.0124 25.7379 13.7909 25.9048 13.6306L28.7927 10.8784C27.9152 9.45046 27.2308 7.90743 26.7582 6.29142C26.7281 6.17963 26.7199 6.06287 26.7339 5.94782C26.748 5.83276 26.7841 5.72167 26.8401 5.6209C26.8962 5.52013 26.9711 5.43165 27.0606 5.36053C27.15 5.28941 27.2524 5.23704 27.3617 5.20642C27.4703 5.17413 27.5842 5.16431 27.6966 5.17752C27.8091 5.19073 27.9178 5.22672 28.0165 5.28337C28.1152 5.34002 28.2019 5.41621 28.2715 5.5075C28.3411 5.59879 28.3923 5.70335 28.422 5.81508C28.9021 7.51831 29.6662 9.12386 30.6806 10.5609L31.422 10.5697Z" fill="#FDD7AD"/>
<path d="M14.6547 18.5246C14.6547 19.989 12.1461 21.171 9.05129 21.171C5.95647 21.171 3.44785 19.989 3.44785 18.5246C3.44785 17.1309 5.72371 15.993 8.62026 15.8871C8.76681 15.8783 8.90474 15.8783 9.05129 15.8783C12.1461 15.8783 14.6547 17.0603 14.6547 18.5246Z" fill="#F0C419"/>
<path d="M19.8271 6.1748V14.9783C17.6593 17.4116 15.9104 20.2034 14.6547 23.2349V18.5244C14.6547 17.0601 12.1461 15.8781 9.05127 15.8781C8.90472 15.8781 8.76679 15.8781 8.62024 15.8869V6.1748C8.62024 7.63912 11.1289 8.82116 14.2237 8.82116C17.3185 8.82116 19.8271 7.63912 19.8271 6.1748Z" fill="#E57E25"/>
<path d="M11.2067 44.1058C11.2067 45.5701 8.69806 46.7522 5.60324 46.7522C2.50841 46.7522 -0.000213623 45.5701 -0.000213623 44.1058C-0.000213623 43.0032 1.4222 42.0593 3.44806 41.6623C4.15846 41.5244 4.88016 41.4564 5.60324 41.4594C8.69806 41.4594 11.2067 42.6415 11.2067 44.1058Z" fill="#F9EAB0"/>
<path d="M11.2067 44.1058V48.5164C11.2067 49.9807 8.69806 51.1627 5.60324 51.1627C2.50841 51.1627 -0.000213623 49.9807 -0.000213623 48.5164V44.1058C-0.000213623 45.5701 2.50841 46.7522 5.60324 46.7522C8.69806 46.7522 11.2067 45.5701 11.2067 44.1058ZM22.4136 35.2846C22.4136 36.7489 19.905 37.931 16.8101 37.931C13.7153 37.931 11.2067 36.7489 11.2067 35.2846C11.2067 34.182 12.6291 33.2381 14.655 32.8412C15.3654 32.7032 16.0871 32.6352 16.8101 32.6383C19.905 32.6383 22.4136 33.8203 22.4136 35.2846Z" fill="#F3D55B"/>
<path d="M22.4133 35.2847V46.7522C22.4133 48.2165 19.9047 49.3985 16.8099 49.3985C13.715 49.3985 11.2064 48.2165 11.2064 46.7522V35.2847C11.2064 36.749 13.715 37.931 16.8099 37.931C19.9047 37.931 22.4133 36.749 22.4133 35.2847Z" fill="#F0C419"/>
<path d="M33.6207 23.8174C33.6207 24.0513 33.7115 24.2757 33.8732 24.4411C34.0348 24.6065 34.2541 24.6995 34.4827 24.6995C34.7114 24.6995 34.9306 24.6065 35.0923 24.4411C35.254 24.2757 35.3448 24.0513 35.3448 23.8174C35.3448 22.8816 34.9815 21.9841 34.3348 21.3224C33.6882 20.6606 32.8111 20.2889 31.8965 20.2889V19.4068C31.8965 19.1728 31.8057 18.9485 31.644 18.783C31.4824 18.6176 31.2631 18.5247 31.0345 18.5247C30.8058 18.5247 30.5866 18.6176 30.4249 18.783C30.2632 18.9485 30.1724 19.1728 30.1724 19.4068V20.2889C29.2579 20.2889 28.3808 20.6606 27.7341 21.3224C27.0874 21.9841 26.7241 22.8816 26.7241 23.8174C26.7241 24.7532 27.0874 25.6506 27.7341 26.3124C28.3808 26.9741 29.2579 27.3458 30.1724 27.3458V30.8743C29.7151 30.8743 29.2766 30.6884 28.9532 30.3576C28.6299 30.0267 28.4483 29.578 28.4483 29.1101C28.4483 28.8761 28.3574 28.6517 28.1958 28.4863C28.0341 28.3209 27.8148 28.2279 27.5862 28.2279C27.3576 28.2279 27.1383 28.3209 26.9766 28.4863C26.8149 28.6517 26.7241 28.8761 26.7241 29.1101C26.7241 30.0459 27.0874 30.9433 27.7341 31.6051C28.3808 32.2668 29.2579 32.6385 30.1724 32.6385V33.5206C30.1724 33.7546 30.2632 33.979 30.4249 34.1444C30.5866 34.3098 30.8058 34.4028 31.0345 34.4028C31.2631 34.4028 31.4824 34.3098 31.644 34.1444C31.8057 33.979 31.8965 33.7546 31.8965 33.5206V32.6385C32.8111 32.6385 33.6882 32.2668 34.3348 31.6051C34.9815 30.9433 35.3448 30.0459 35.3448 29.1101C35.3448 28.1743 34.9815 27.2768 34.3348 26.6151C33.6882 25.9533 32.8111 25.5816 31.8965 25.5816V22.0531C32.3538 22.0531 32.7923 22.239 33.1157 22.5699C33.439 22.9007 33.6207 23.3495 33.6207 23.8174ZM33.6207 29.1101C33.6207 29.578 33.439 30.0267 33.1157 30.3576C32.7923 30.6884 32.3538 30.8743 31.8965 30.8743V27.3458C32.3538 27.3458 32.7923 27.5317 33.1157 27.8626C33.439 28.1934 33.6207 28.6422 33.6207 29.1101ZM30.1724 25.5816C29.7151 25.5816 29.2766 25.3957 28.9532 25.0649C28.6299 24.734 28.4483 24.2853 28.4483 23.8174C28.4483 23.3495 28.6299 22.9007 28.9532 22.5699C29.2766 22.239 29.7151 22.0531 30.1724 22.0531V25.5816Z" fill="#FDD7AD"/>
</g>
<defs>
<filter id="filter0_d_11910_517" x="-0.000213623" y="0" width="49.9958" height="55.1627" filterUnits="userSpaceOnUse" color-interpolation-filters="sRGB">
<feFlood flood-opacity="0" result="BackgroundImageFix"/>
<feColorMatrix in="SourceAlpha" type="matrix" values="0 0 0 0 0 0 0 0 0 0 0 0 0 0 0 0 0 0 127 0" result="hardAlpha"/>
<feOffset dy="4"/>
<feComposite in2="hardAlpha" operator="out"/>
<feColorMatrix type="matrix" values="0 0 0 0 0 0 0 0 0 0 0 0 0 0 0 0 0 0 0.12 0"/>
<feBlend mode="normal" in2="BackgroundImageFix" result="effect1_dropShadow_11910_517"/>
<feBlend mode="normal" in="SourceGraphic" in2="effect1_dropShadow_11910_517" result="shape"/>
</filter>
</defs>
</svg>
