<svg width="70" height="70" viewBox="0 0 70 70" fill="none" xmlns="http://www.w3.org/2000/svg">
<rect x="0.5" y="0.5" width="68.8862" height="68.8862" rx="8.5" fill="url(#paint0_linear_11910_236)"/>
<rect x="0.5" y="0.5" width="68.8862" height="68.8862" rx="8.5" stroke="url(#paint1_linear_11910_236)" stroke-dasharray="2 2"/>
<g clip-path="url(#clip0_11910_236)">
<path fill-rule="evenodd" clip-rule="evenodd" d="M27.9018 32.5881C26.8004 32.5881 26.2146 31.2524 27.0113 30.4557L28.9562 28.5342H22.0201C20.3798 28.5342 20.3798 26.0269 22.0201 26.0269L28.9562 26.0503L27.0113 24.1054C25.8397 22.9337 27.6206 21.1763 28.7688 22.3245L32.8695 26.4252C33.3382 26.9173 33.3382 27.6906 32.8461 28.1827L28.7688 32.2366C28.5345 32.4709 28.2064 32.5881 27.9018 32.5881ZM29.3312 39.4071H21.8092C18.0599 39.4071 14.9668 36.3374 14.9668 32.5647V22.0198C14.9668 18.2471 18.0365 15.1774 21.8092 15.1774H32.1666C35.9393 15.1774 39.009 18.2471 39.009 22.0198V28.6748L46.3903 20.4498C47.4917 19.2079 49.3663 20.8716 48.265 22.1136L40.5555 30.6666L48.0775 30.69C51.8502 30.69 54.9199 33.7597 54.9199 37.5324V47.8664C54.9199 51.6391 51.8502 54.7088 48.0775 54.7088H37.7436C33.9709 54.7088 30.9012 51.6391 30.9012 47.8664V41.3989L24.2462 48.8037C23.1917 50.0222 21.2702 48.3819 22.395 47.1399L29.3312 39.4071ZM36.5016 31.4399V22.0198C36.5016 19.6297 34.5567 17.6848 32.1666 17.6848H21.8092C19.419 17.6848 17.4507 19.6297 17.4507 22.0198V32.5647C17.4507 34.9782 19.419 36.9232 21.8092 36.9232H31.5807L36.5016 31.4399ZM33.4085 38.6338V47.8664C33.4085 50.2565 35.3534 52.2014 37.7436 52.2014H48.0775C50.4677 52.2014 52.4126 50.2565 52.4126 47.8664V37.5324C52.4126 35.1188 50.4677 33.1739 48.0775 33.1739H38.306L33.4085 38.6338ZM47.89 43.9296H40.9539L42.8988 45.8746C44.0705 47.0462 42.2896 48.8037 41.1179 47.6555L37.0406 43.5781C36.5485 43.0626 36.5485 42.2425 37.1343 41.7269L41.1414 37.7433C42.313 36.5951 44.047 38.376 42.8988 39.5242L40.9539 41.4457H47.89C49.5304 41.4457 49.5304 43.9296 47.89 43.9296Z" fill="white"/>
</g>
<defs>
<linearGradient id="paint0_linear_11910_236" x1="1" y1="34.9431" x2="68.8862" y2="34.9431" gradientUnits="userSpaceOnUse">
<stop stop-color="#2563EB"/>
<stop offset="1" stop-color="#3373FF"/>
</linearGradient>
<linearGradient id="paint1_linear_11910_236" x1="68.8862" y1="34.9431" x2="1" y2="34.9431" gradientUnits="userSpaceOnUse">
<stop stop-color="#2563EB"/>
<stop offset="0.5" stop-color="#2563EB"/>
<stop offset="0.503656" stop-color="#FF9441"/>
<stop offset="1" stop-color="#FF9441"/>
</linearGradient>
<clipPath id="clip0_11910_236">
<rect width="40" height="40" fill="white" transform="translate(14.9434 14.9431)"/>
</clipPath>
</defs>
</svg>
