<svg width="110" height="110" viewBox="0 0 110 110" fill="none" xmlns="http://www.w3.org/2000/svg">
<path fill-rule="evenodd" clip-rule="evenodd" d="M7.59154 37.0586H65.8989C68.2988 37.0586 70.2452 39.0149 70.2452 41.4049V87.7522C70.2452 90.1524 68.2988 92.0985 65.8989 92.0985H7.59154C5.19138 92.0985 3.23511 90.1524 3.23511 87.7522V41.4049C3.23511 39.0149 5.19138 37.0586 7.59154 37.0586Z" fill="#2563EB" fill-opacity="0.1"/>
<path fill-rule="evenodd" clip-rule="evenodd" d="M106.764 87.6956C106.764 84.3721 104.066 81.6738 100.742 81.6738H47.5586C44.2351 81.6738 41.5369 84.3721 41.5369 87.6956V100.743C41.5369 104.066 44.2351 106.765 47.5586 106.765H100.742C104.066 106.765 106.764 104.066 106.764 100.743V87.6956Z" fill="white"/>
<path fill-rule="evenodd" clip-rule="evenodd" d="M39.8122 93.8246H7.59169C4.23992 93.8246 1.50977 91.1046 1.50977 87.7526V41.4048C1.50977 38.0671 4.23992 35.3328 7.59169 35.3328H11.201V27.0546C11.201 13.0061 22.6971 1.50977 36.7458 1.50977C50.7945 1.50977 62.2805 13.0058 62.2805 27.0546V35.3328H65.8997C69.2527 35.3328 71.9717 38.066 71.9717 41.4048V79.9484H100.743C105.019 79.9484 108.49 83.4199 108.49 87.6956V100.743C108.49 105.019 105.019 108.49 100.743 108.49H47.5594C43.2837 108.49 39.8122 105.019 39.8122 100.743V93.8246ZM25.5631 35.3328H47.9283V27.0546C47.9283 20.9127 42.879 15.862 36.7458 15.862C30.6125 15.862 25.5631 20.9127 25.5631 27.0546V35.3328ZM68.5207 79.9484V41.4048C68.5207 39.9636 67.3469 38.7838 65.8997 38.7838H7.59169C6.14335 38.7838 4.96075 39.9625 4.96075 41.4048V87.7526C4.96075 89.2011 6.14335 90.3736 7.59169 90.3736H39.8122V87.6956C39.8122 83.4199 43.2837 79.9484 47.5594 79.9484H68.5207ZM58.8295 35.3328V27.0546C58.8295 14.9041 48.8963 4.96075 36.7458 4.96075C24.5951 4.96075 14.652 14.9039 14.652 27.0546V35.3328H22.1121V27.0546C22.1121 19.0179 28.7205 12.411 36.7458 12.411C44.771 12.411 51.3792 19.0179 51.3792 27.0546V35.3328H58.8295ZM36.7458 46.3147C42.3776 46.3147 46.9421 50.8896 46.9421 56.5212C46.9421 59.8415 45.3681 62.7854 42.9185 64.6478V76.67C42.9185 80.0711 40.1331 82.8427 36.7458 82.8427C33.3444 82.8427 30.5731 80.0711 30.5731 76.67V64.6483C28.1218 62.7858 26.5393 59.8413 26.5393 56.5212C26.5393 50.8901 31.1147 46.3147 36.7458 46.3147ZM36.7458 49.7657C33.0185 49.7657 29.9903 52.7941 29.9903 56.5212C29.9903 58.9554 31.2762 61.084 33.2042 62.2729C33.4548 62.4275 33.6617 62.6436 33.8052 62.9007C33.9487 63.1578 34.024 63.4473 34.024 63.7417V76.67C34.024 78.1696 35.2459 79.3917 36.7458 79.3917C38.2392 79.3917 39.4675 78.1696 39.4675 76.67V63.7417C39.4675 63.4473 39.5428 63.1578 39.6863 62.9007C39.8298 62.6436 40.0367 62.4274 40.2874 62.2729C41.2688 61.6683 42.0787 60.8221 42.6396 59.815C43.2006 58.808 43.4938 57.6739 43.4912 56.5212C43.4912 52.7946 40.4724 49.7657 36.7458 49.7657ZM105.039 87.6956C105.039 85.3246 103.114 83.3994 100.743 83.3994H47.5594C45.1884 83.3994 43.2632 85.3246 43.2632 87.6956V100.743C43.2632 103.114 45.1884 105.039 47.5594 105.039H100.743C103.114 105.039 105.039 103.114 105.039 100.743V87.6956ZM51.0454 95.9374L48.4921 95.9329C48.0345 95.9319 47.596 95.7493 47.273 95.4252C46.95 95.1011 46.769 94.662 46.7696 94.2044C46.7706 93.7469 46.9533 93.3084 47.2774 92.9855C47.6015 92.6626 48.0406 92.4815 48.4981 92.4821L51.0307 92.4865L49.2398 90.6956C48.5665 90.0222 48.5665 88.9287 49.2398 88.2553C49.9132 87.582 51.0068 87.582 51.6801 88.2553L53.4783 90.0535V87.5106C53.4783 86.5583 54.2515 85.7851 55.2038 85.7851C56.156 85.7851 56.9293 86.5583 56.9293 87.5106V90.0535L58.7275 88.2553C59.4008 87.582 60.4944 87.582 61.1677 88.2553C61.8411 88.9287 61.8411 90.0222 61.1677 90.6956L59.3622 92.5011L61.9155 92.5057C62.3731 92.5066 62.8116 92.6892 63.1345 93.0134C63.4575 93.3375 63.6386 93.7766 63.638 94.2342C63.6369 94.6917 63.4542 95.1301 63.1301 95.4531C62.8061 95.776 62.367 95.9572 61.9095 95.9566L59.3769 95.9521L61.1677 97.743C61.8411 98.4163 61.8411 99.5098 61.1677 100.183C60.4944 100.857 59.4008 100.857 58.7275 100.183L56.9293 98.385V100.928C56.9293 101.88 56.156 102.653 55.2038 102.653C54.2515 102.653 53.4783 101.88 53.4783 100.928V98.385L51.6801 100.183C51.0068 100.857 49.9132 100.857 49.2398 100.183C48.5665 99.5098 48.5665 98.4163 49.2398 97.743L51.0454 95.9374ZM87.5429 95.9374L84.9896 95.9329C84.532 95.932 84.0935 95.7494 83.7705 95.4253C83.4475 95.1011 83.2665 94.662 83.2672 94.2044C83.2687 93.2521 84.0432 92.4804 84.9957 92.4821L87.5283 92.4865L85.7374 90.6956C85.064 90.0222 85.064 88.9287 85.7374 88.2553C86.4108 87.582 87.5043 87.582 88.1777 88.2553L89.9759 90.0535V87.5106C89.9759 86.5583 90.7489 85.7851 91.7014 85.7851C92.6536 85.7851 93.4269 86.5583 93.4269 87.5106V90.0535L95.225 88.2553C95.5487 87.932 95.9875 87.7503 96.4451 87.7503C96.9026 87.7503 97.3414 87.932 97.6651 88.2553C97.9885 88.579 98.1702 89.0179 98.1702 89.4755C98.1702 89.9331 97.9885 90.3719 97.6651 90.6956L95.8598 92.5011L98.4131 92.5057C99.3653 92.5072 100.137 93.2817 100.136 94.2342C100.134 94.6917 99.9518 95.1301 99.6277 95.4531C99.3036 95.776 98.8646 95.9572 98.4071 95.9566L95.8742 95.9521L97.6651 97.743C97.9885 98.0666 98.1702 98.5055 98.1702 98.9631C98.1702 99.4207 97.9885 99.8595 97.6651 100.183C97.3414 100.507 96.9026 100.688 96.4451 100.688C95.9875 100.688 95.5487 100.507 95.225 100.183L93.4269 98.385V100.928C93.4269 101.88 92.6536 102.653 91.7014 102.653C90.7489 102.653 89.9759 101.88 89.9759 100.928V98.385L88.1777 100.183C87.5043 100.857 86.4108 100.857 85.7374 100.183C85.064 99.5098 85.064 98.4163 85.7374 97.743L87.5429 95.9374ZM69.2941 95.9374L66.7409 95.9329C66.2833 95.932 65.8448 95.7494 65.5218 95.4253C65.1988 95.1011 65.0177 94.662 65.0184 94.2044C65.0194 93.7469 65.202 93.3084 65.5262 92.9855C65.8503 92.6626 66.2894 92.4815 66.7469 92.4821L69.2795 92.4865L67.4886 90.6956C66.8153 90.0222 66.8153 88.9287 67.4886 88.2553C68.162 87.582 69.2555 87.582 69.9289 88.2553L71.7271 90.0535V87.5106C71.7271 86.5583 72.5003 85.7851 73.4526 85.7851C74.4048 85.7851 75.1781 86.5583 75.1781 87.5106V90.0535L76.9762 88.2553C77.6496 87.582 78.7431 87.582 79.4165 88.2553C80.0899 88.9287 80.0899 90.0222 79.4165 90.6956L77.611 92.5011L80.1643 92.5057C80.6219 92.5066 81.0603 92.6892 81.3833 93.0134C81.7063 93.3375 81.8874 93.7766 81.8868 94.2342C81.8857 94.6917 81.703 95.1301 81.3789 95.4531C81.0548 95.776 80.6158 95.9572 80.1583 95.9566L77.6255 95.9521L79.4165 97.743C80.0899 98.4163 80.0899 99.5098 79.4165 100.183C78.7431 100.857 77.6496 100.857 76.9762 100.183L75.1781 98.385V100.928C75.1781 101.88 74.4048 102.653 73.4526 102.653C72.5003 102.653 71.7271 101.88 71.7271 100.928V98.385L69.9289 100.183C69.2555 100.857 68.162 100.857 67.4886 100.183C66.8153 99.5098 66.8153 98.4163 67.4886 97.743L69.2941 95.9374Z" fill="#2563EB"/>
</svg>
