<svg width="62" height="62" viewBox="0 0 62 62" fill="none" xmlns="http://www.w3.org/2000/svg">
<rect width="62" height="62" rx="10" fill="#D8F2D8"/>
<g clip-path="url(#clip0_12151_464)">
<path d="M39.5 31C34.825 31 31 34.825 31 39.5C31 44.175 34.825 48 39.5 48C44.175 48 48 44.175 48 39.5C48 34.825 44.175 31 39.5 31ZM42.6875 40.5625H40.5625V42.6875C40.5625 43.325 40.1375 43.75 39.5 43.75C38.8625 43.75 38.4375 43.325 38.4375 42.6875V40.5625H36.3125C35.675 40.5625 35.25 40.1375 35.25 39.5C35.25 38.8625 35.675 38.4375 36.3125 38.4375H38.4375V36.3125C38.4375 35.675 38.8625 35.25 39.5 35.25C40.1375 35.25 40.5625 35.675 40.5625 36.3125V38.4375H42.6875C43.325 38.4375 43.75 38.8625 43.75 39.5C43.75 40.1375 43.325 40.5625 42.6875 40.5625Z" fill="#207320"/>
<path d="M22.925 37.375L24.2 34.9313C24.7313 33.8688 25.7937 33.125 27.0688 33.125H31C32.9125 30.575 35.9937 28.875 39.5 28.875C40.775 28.875 41.9438 29.0875 43.1125 29.5125C42.6875 28.875 42.1562 28.2375 41.625 27.8125H42.6875C43.325 27.8125 43.75 27.3875 43.75 26.75C43.75 26.1125 43.325 25.6875 42.6875 25.6875H39.7125L38.4375 22.5C37.5875 20.5875 35.675 19.3125 33.55 19.3125H24.2C22.075 19.3125 20.1625 20.5875 19.3125 22.5L17.9313 25.6875H15.0625C14.425 25.6875 14 26.1125 14 26.75C14 27.3875 14.425 27.8125 15.0625 27.8125H16.125C14.85 28.7688 14 30.3625 14 32.0625V36.3125C14 37.2687 14.425 38.1188 15.0625 38.65V40.5625C15.0625 42.3687 16.4437 43.75 18.25 43.75H20.375C22.1812 43.75 23.5625 42.3687 23.5625 40.5625V39.5H28.875C28.875 38.7563 28.9812 38.0125 29.0875 37.375H22.925ZM21.4375 34.1875H18.25C17.6125 34.1875 17.1875 33.7625 17.1875 33.125C17.1875 32.4875 17.6125 32.0625 18.25 32.0625H21.4375C22.075 32.0625 22.5 32.4875 22.5 33.125C22.5 33.7625 22.075 34.1875 21.4375 34.1875ZM19.8438 26.75L21.3313 23.35C21.8625 22.1813 22.925 21.4375 24.2 21.4375H33.4437C34.7188 21.4375 35.8875 22.1813 36.4188 23.35L37.9062 26.75H19.8438Z" fill="#207320"/>
</g>
<defs>
<clipPath id="clip0_12151_464">
<rect width="34" height="34" fill="white" transform="translate(14 14)"/>
</clipPath>
</defs>
</svg>
