<svg width="317" height="36" viewBox="0 0 317 36" fill="none" xmlns="http://www.w3.org/2000/svg">
<path d="M7.32 29L0.51 7.82H5.19L10.17 24.11H8.34L13.2 7.82H16.89L21.75 24.11H19.95L24.9 7.82H29.55L22.74 29H19.05L14.16 12.71H15.9L11.01 29H7.32ZM37.0036 29.33C35.4236 29.33 34.0136 29.01 32.7736 28.37C31.5536 27.71 30.5936 26.8 29.8936 25.64C29.1936 24.48 28.8436 23.17 28.8436 21.71C28.8436 20.25 29.1836 18.95 29.8636 17.81C30.5636 16.65 31.5036 15.74 32.6836 15.08C33.8636 14.42 35.1936 14.09 36.6736 14.09C38.1136 14.09 39.3836 14.4 40.4836 15.02C41.5836 15.64 42.4436 16.5 43.0636 17.6C43.7036 18.7 44.0236 19.96 44.0236 21.38C44.0236 21.64 44.0036 21.92 43.9636 22.22C43.9436 22.5 43.8936 22.83 43.8136 23.21L31.2436 23.24V20.09L41.8636 20.06L39.8836 21.38C39.8636 20.54 39.7336 19.85 39.4936 19.31C39.2536 18.75 38.8936 18.33 38.4136 18.05C37.9536 17.75 37.3836 17.6 36.7036 17.6C35.9836 17.6 35.3536 17.77 34.8136 18.11C34.2936 18.43 33.8836 18.89 33.5836 19.49C33.3036 20.09 33.1636 20.82 33.1636 21.68C33.1636 22.54 33.3136 23.28 33.6136 23.9C33.9336 24.5 34.3736 24.97 34.9336 25.31C35.5136 25.63 36.1936 25.79 36.9736 25.79C37.6936 25.79 38.3436 25.67 38.9236 25.43C39.5036 25.17 40.0136 24.79 40.4536 24.29L42.9736 26.81C42.2536 27.65 41.3836 28.28 40.3636 28.7C39.3436 29.12 38.2236 29.33 37.0036 29.33ZM46.2391 29V7.22H50.8291V29H46.2391ZM61.1114 29.33C59.6114 29.33 58.2514 29 57.0314 28.34C55.8114 27.68 54.8514 26.77 54.1514 25.61C53.4514 24.45 53.1014 23.15 53.1014 21.71C53.1014 20.25 53.4514 18.95 54.1514 17.81C54.8714 16.65 55.8414 15.74 57.0614 15.08C58.2814 14.42 59.6514 14.09 61.1714 14.09C62.3114 14.09 63.3514 14.29 64.2914 14.69C65.2514 15.07 66.1014 15.65 66.8414 16.43L63.9014 19.37C63.5614 18.99 63.1614 18.71 62.7014 18.53C62.2614 18.35 61.7514 18.26 61.1714 18.26C60.5114 18.26 59.9214 18.41 59.4014 18.71C58.9014 18.99 58.5014 19.39 58.2014 19.91C57.9214 20.41 57.7814 21 57.7814 21.68C57.7814 22.36 57.9214 22.96 58.2014 23.48C58.5014 24 58.9114 24.41 59.4314 24.71C59.9514 25.01 60.5314 25.16 61.1714 25.16C61.7714 25.16 62.3014 25.06 62.7614 24.86C63.2414 24.64 63.6514 24.34 63.9914 23.96L66.9014 26.9C66.1414 27.7 65.2814 28.31 64.3214 28.73C63.3614 29.13 62.2914 29.33 61.1114 29.33ZM75.6127 29.33C74.1127 29.33 72.7527 29 71.5327 28.34C70.3327 27.66 69.3827 26.74 68.6827 25.58C67.9827 24.42 67.6327 23.12 67.6327 21.68C67.6327 20.24 67.9827 18.95 68.6827 17.81C69.3827 16.67 70.3327 15.77 71.5327 15.11C72.7327 14.43 74.0927 14.09 75.6127 14.09C77.1327 14.09 78.4927 14.42 79.6927 15.08C80.8927 15.74 81.8427 16.65 82.5427 17.81C83.2427 18.95 83.5927 20.24 83.5927 21.68C83.5927 23.12 83.2427 24.42 82.5427 25.58C81.8427 26.74 80.8927 27.66 79.6927 28.34C78.4927 29 77.1327 29.33 75.6127 29.33ZM75.6127 25.16C76.2727 25.16 76.8527 25.02 77.3527 24.74C77.8527 24.44 78.2327 24.03 78.4927 23.51C78.7727 22.97 78.9127 22.36 78.9127 21.68C78.9127 21 78.7727 20.41 78.4927 19.91C78.2127 19.39 77.8227 18.99 77.3227 18.71C76.8427 18.41 76.2727 18.26 75.6127 18.26C74.9727 18.26 74.4027 18.41 73.9027 18.71C73.4027 18.99 73.0127 19.39 72.7327 19.91C72.4527 20.43 72.3127 21.03 72.3127 21.71C72.3127 22.37 72.4527 22.97 72.7327 23.51C73.0127 24.03 73.4027 24.44 73.9027 24.74C74.4027 25.02 74.9727 25.16 75.6127 25.16ZM85.8778 29V14.42H90.4678V29H85.8778ZM95.2078 29V20.48C95.2078 19.74 94.9778 19.17 94.5178 18.77C94.0778 18.35 93.5278 18.14 92.8678 18.14C92.4078 18.14 91.9978 18.24 91.6378 18.44C91.2778 18.62 90.9878 18.88 90.7678 19.22C90.5678 19.56 90.4678 19.98 90.4678 20.48L88.6978 19.7C88.6978 18.54 88.9478 17.55 89.4478 16.73C89.9478 15.89 90.6278 15.25 91.4878 14.81C92.3478 14.35 93.3178 14.12 94.3978 14.12C95.4178 14.12 96.3278 14.35 97.1278 14.81C97.9478 15.27 98.5978 15.91 99.0778 16.73C99.5578 17.55 99.7978 18.53 99.7978 19.67V29H95.2078ZM104.538 29V20.48C104.538 19.74 104.308 19.17 103.848 18.77C103.408 18.35 102.858 18.14 102.198 18.14C101.738 18.14 101.328 18.24 100.968 18.44C100.608 18.62 100.318 18.88 100.098 19.22C99.8978 19.56 99.7978 19.98 99.7978 20.48L97.1578 20.12C97.1978 18.88 97.4878 17.82 98.0278 16.94C98.5878 16.04 99.3178 15.35 100.218 14.87C101.138 14.37 102.168 14.12 103.308 14.12C104.428 14.12 105.418 14.36 106.278 14.84C107.158 15.3 107.848 15.97 108.348 16.85C108.868 17.71 109.128 18.75 109.128 19.97V29H104.538ZM119.269 29.33C117.689 29.33 116.279 29.01 115.039 28.37C113.819 27.71 112.859 26.8 112.159 25.64C111.459 24.48 111.109 23.17 111.109 21.71C111.109 20.25 111.449 18.95 112.129 17.81C112.829 16.65 113.769 15.74 114.949 15.08C116.129 14.42 117.459 14.09 118.939 14.09C120.379 14.09 121.649 14.4 122.749 15.02C123.849 15.64 124.709 16.5 125.329 17.6C125.969 18.7 126.289 19.96 126.289 21.38C126.289 21.64 126.269 21.92 126.229 22.22C126.209 22.5 126.159 22.83 126.079 23.21L113.509 23.24V20.09L124.129 20.06L122.149 21.38C122.129 20.54 121.999 19.85 121.759 19.31C121.519 18.75 121.159 18.33 120.679 18.05C120.219 17.75 119.649 17.6 118.969 17.6C118.249 17.6 117.619 17.77 117.079 18.11C116.559 18.43 116.149 18.89 115.849 19.49C115.569 20.09 115.429 20.82 115.429 21.68C115.429 22.54 115.579 23.28 115.879 23.9C116.199 24.5 116.639 24.97 117.199 25.31C117.779 25.63 118.459 25.79 119.239 25.79C119.959 25.79 120.609 25.67 121.189 25.43C121.769 25.17 122.279 24.79 122.719 24.29L125.239 26.81C124.519 27.65 123.649 28.28 122.629 28.7C121.609 29.12 120.489 29.33 119.269 29.33ZM136.288 29V8.39H140.878V29H136.288ZM132.988 18.32V14.42H144.178V18.32H132.988ZM152.927 29.33C151.427 29.33 150.067 29 148.847 28.34C147.647 27.66 146.697 26.74 145.997 25.58C145.297 24.42 144.947 23.12 144.947 21.68C144.947 20.24 145.297 18.95 145.997 17.81C146.697 16.67 147.647 15.77 148.847 15.11C150.047 14.43 151.407 14.09 152.927 14.09C154.447 14.09 155.807 14.42 157.007 15.08C158.207 15.74 159.157 16.65 159.857 17.81C160.557 18.95 160.907 20.24 160.907 21.68C160.907 23.12 160.557 24.42 159.857 25.58C159.157 26.74 158.207 27.66 157.007 28.34C155.807 29 154.447 29.33 152.927 29.33ZM152.927 25.16C153.587 25.16 154.167 25.02 154.667 24.74C155.167 24.44 155.547 24.03 155.807 23.51C156.087 22.97 156.227 22.36 156.227 21.68C156.227 21 156.087 20.41 155.807 19.91C155.527 19.39 155.137 18.99 154.637 18.71C154.157 18.41 153.587 18.26 152.927 18.26C152.287 18.26 151.717 18.41 151.217 18.71C150.717 18.99 150.327 19.39 150.047 19.91C149.767 20.43 149.627 21.03 149.627 21.71C149.627 22.37 149.767 22.97 150.047 23.51C150.327 24.03 150.717 24.44 151.217 24.74C151.717 25.02 152.287 25.16 152.927 25.16Z" fill="#00162E"/>
<path d="M179.375 29.33C177.795 29.33 176.325 29.06 174.965 28.52C173.625 27.96 172.445 27.18 171.425 26.18C170.425 25.18 169.645 24.02 169.085 22.7C168.525 21.36 168.245 19.92 168.245 18.38C168.245 16.84 168.525 15.41 169.085 14.09C169.645 12.75 170.425 11.59 171.425 10.61C172.425 9.63 173.595 8.87 174.935 8.33C176.295 7.77 177.765 7.49 179.345 7.49C181.025 7.49 182.515 7.76 183.815 8.3C185.135 8.84 186.285 9.58 187.265 10.52L184.115 13.7C183.555 13.1 182.875 12.63 182.075 12.29C181.295 11.95 180.385 11.78 179.345 11.78C178.425 11.78 177.575 11.94 176.795 12.26C176.035 12.56 175.375 13 174.815 13.58C174.275 14.16 173.845 14.86 173.525 15.68C173.225 16.5 173.075 17.4 173.075 18.38C173.075 19.38 173.225 20.29 173.525 21.11C173.845 21.93 174.275 22.63 174.815 23.21C175.375 23.79 176.035 24.24 176.795 24.56C177.575 24.88 178.425 25.04 179.345 25.04C180.425 25.04 181.365 24.87 182.165 24.53C182.965 24.19 183.655 23.72 184.235 23.12L187.415 26.3C186.395 27.24 185.225 27.98 183.905 28.52C182.605 29.06 181.095 29.33 179.375 29.33ZM195.327 29.3C193.987 29.3 192.787 28.97 191.727 28.31C190.687 27.65 189.857 26.75 189.237 25.61C188.637 24.47 188.337 23.17 188.337 21.71C188.337 20.25 188.637 18.95 189.237 17.81C189.857 16.67 190.687 15.77 191.727 15.11C192.787 14.45 193.987 14.12 195.327 14.12C196.307 14.12 197.187 14.31 197.967 14.69C198.767 15.07 199.417 15.6 199.917 16.28C200.417 16.94 200.697 17.7 200.757 18.56V24.86C200.697 25.72 200.417 26.49 199.917 27.17C199.437 27.83 198.797 28.35 197.997 28.73C197.197 29.11 196.307 29.3 195.327 29.3ZM196.257 25.16C197.237 25.16 198.027 24.84 198.627 24.2C199.227 23.54 199.527 22.71 199.527 21.71C199.527 21.03 199.387 20.43 199.107 19.91C198.847 19.39 198.467 18.99 197.967 18.71C197.487 18.41 196.927 18.26 196.287 18.26C195.647 18.26 195.077 18.41 194.577 18.71C194.097 18.99 193.707 19.39 193.407 19.91C193.127 20.43 192.987 21.03 192.987 21.71C192.987 22.37 193.127 22.96 193.407 23.48C193.687 24 194.077 24.41 194.577 24.71C195.077 25.01 195.637 25.16 196.257 25.16ZM199.347 29V25.07L200.037 21.53L199.347 17.99V14.42H203.847V29H199.347ZM207.079 29V14.42H211.669V29H207.079ZM211.669 20.99L209.749 19.49C210.129 17.79 210.769 16.47 211.669 15.53C212.569 14.59 213.819 14.12 215.419 14.12C216.119 14.12 216.729 14.23 217.249 14.45C217.789 14.65 218.259 14.97 218.659 15.41L215.929 18.86C215.729 18.64 215.479 18.47 215.179 18.35C214.879 18.23 214.539 18.17 214.159 18.17C213.399 18.17 212.789 18.41 212.329 18.89C211.889 19.35 211.669 20.05 211.669 20.99ZM224.429 29V25.34H229.409C230.329 25.34 231.049 25.07 231.569 24.53C232.089 23.99 232.349 23.33 232.349 22.55C232.349 22.01 232.229 21.53 231.989 21.11C231.749 20.69 231.409 20.36 230.969 20.12C230.549 19.88 230.029 19.76 229.409 19.76H224.429V16.19H229.019C229.799 16.19 230.429 16 230.909 15.62C231.389 15.22 231.629 14.62 231.629 13.82C231.629 13.04 231.389 12.46 230.909 12.08C230.429 11.68 229.799 11.48 229.019 11.48H224.429V7.82H229.919C231.279 7.82 232.429 8.07 233.369 8.57C234.329 9.07 235.059 9.74 235.559 10.58C236.059 11.42 236.309 12.35 236.309 13.37C236.309 14.67 235.889 15.77 235.049 16.67C234.209 17.57 232.969 18.19 231.329 18.53L231.449 16.94C233.229 17.28 234.599 17.97 235.559 19.01C236.539 20.05 237.029 21.33 237.029 22.85C237.029 24.01 236.739 25.06 236.159 26C235.599 26.92 234.779 27.65 233.699 28.19C232.639 28.73 231.359 29 229.859 29H224.429ZM220.829 29V7.82H225.479V29H220.829ZM246.648 29.33C245.148 29.33 243.788 29 242.568 28.34C241.368 27.66 240.418 26.74 239.718 25.58C239.018 24.42 238.668 23.12 238.668 21.68C238.668 20.24 239.018 18.95 239.718 17.81C240.418 16.67 241.368 15.77 242.568 15.11C243.768 14.43 245.128 14.09 246.648 14.09C248.168 14.09 249.528 14.42 250.728 15.08C251.928 15.74 252.878 16.65 253.578 17.81C254.278 18.95 254.628 20.24 254.628 21.68C254.628 23.12 254.278 24.42 253.578 25.58C252.878 26.74 251.928 27.66 250.728 28.34C249.528 29 248.168 29.33 246.648 29.33ZM246.648 25.16C247.308 25.16 247.888 25.02 248.388 24.74C248.888 24.44 249.268 24.03 249.528 23.51C249.808 22.97 249.948 22.36 249.948 21.68C249.948 21 249.808 20.41 249.528 19.91C249.248 19.39 248.858 18.99 248.358 18.71C247.878 18.41 247.308 18.26 246.648 18.26C246.008 18.26 245.438 18.41 244.938 18.71C244.438 18.99 244.048 19.39 243.768 19.91C243.488 20.43 243.348 21.03 243.348 21.71C243.348 22.37 243.488 22.97 243.768 23.51C244.048 24.03 244.438 24.44 244.938 24.74C245.438 25.02 246.008 25.16 246.648 25.16ZM263.393 29.33C262.053 29.33 260.863 29.06 259.823 28.52C258.803 27.96 258.003 27.2 257.423 26.24C256.843 25.26 256.553 24.14 256.553 22.88V14.42H261.143V22.82C261.143 23.32 261.223 23.75 261.383 24.11C261.563 24.47 261.823 24.75 262.163 24.95C262.503 25.15 262.913 25.25 263.393 25.25C264.073 25.25 264.613 25.04 265.013 24.62C265.413 24.18 265.613 23.58 265.613 22.82V14.42H270.203V22.85C270.203 24.13 269.913 25.26 269.333 26.24C268.753 27.2 267.953 27.96 266.933 28.52C265.913 29.06 264.733 29.33 263.393 29.33ZM282.715 29V20.69C282.715 19.93 282.475 19.32 281.995 18.86C281.535 18.38 280.945 18.14 280.225 18.14C279.725 18.14 279.285 18.25 278.905 18.47C278.525 18.67 278.225 18.97 278.005 19.37C277.785 19.75 277.675 20.19 277.675 20.69L275.905 19.82C275.905 18.68 276.155 17.68 276.655 16.82C277.155 15.96 277.845 15.3 278.725 14.84C279.625 14.36 280.635 14.12 281.755 14.12C282.835 14.12 283.785 14.38 284.605 14.9C285.445 15.4 286.105 16.07 286.585 16.91C287.065 17.75 287.305 18.67 287.305 19.67V29H282.715ZM273.085 29V14.42H277.675V29H273.085ZM292.147 29V8.39H296.737V29H292.147ZM288.847 18.32V14.42H300.037V18.32H288.847ZM306.559 29.06L300.559 14.42H305.509L309.319 26.03H307.489L311.389 14.42H316.339L310.099 29.06H306.559ZM302.809 35.15L307.189 25.7L310.099 29.06L307.519 35.15H302.809Z" fill="#2563EB"/>
</svg>
