<svg width="271" height="36" viewBox="0 0 271 36" fill="none" xmlns="http://www.w3.org/2000/svg">
<path d="M8.64 29L0.48 7.82H5.52L11.73 24.95H9.66L15.96 7.82H20.94L12.69 29H8.64ZM27.4528 29.33C25.8728 29.33 24.4628 29.01 23.2228 28.37C22.0028 27.71 21.0428 26.8 20.3428 25.64C19.6428 24.48 19.2928 23.17 19.2928 21.71C19.2928 20.25 19.6328 18.95 20.3128 17.81C21.0128 16.65 21.9528 15.74 23.1328 15.08C24.3128 14.42 25.6428 14.09 27.1228 14.09C28.5628 14.09 29.8328 14.4 30.9328 15.02C32.0328 15.64 32.8928 16.5 33.5128 17.6C34.1528 18.7 34.4728 19.96 34.4728 21.38C34.4728 21.64 34.4528 21.92 34.4128 22.22C34.3928 22.5 34.3428 22.83 34.2628 23.21L21.6928 23.24V20.09L32.3128 20.06L30.3328 21.38C30.3128 20.54 30.1828 19.85 29.9428 19.31C29.7028 18.75 29.3428 18.33 28.8628 18.05C28.4028 17.75 27.8328 17.6 27.1528 17.6C26.4328 17.6 25.8028 17.77 25.2628 18.11C24.7428 18.43 24.3328 18.89 24.0328 19.49C23.7528 20.09 23.6128 20.82 23.6128 21.68C23.6128 22.54 23.7628 23.28 24.0628 23.9C24.3828 24.5 24.8228 24.97 25.3828 25.31C25.9628 25.63 26.6428 25.79 27.4228 25.79C28.1428 25.79 28.7928 25.67 29.3728 25.43C29.9528 25.17 30.4628 24.79 30.9028 24.29L33.4228 26.81C32.7028 27.65 31.8328 28.28 30.8128 28.7C29.7928 29.12 28.6728 29.33 27.4528 29.33ZM36.6884 29V14.42H41.2784V29H36.6884ZM41.2784 20.99L39.3584 19.49C39.7384 17.79 40.3784 16.47 41.2784 15.53C42.1784 14.59 43.4284 14.12 45.0284 14.12C45.7284 14.12 46.3384 14.23 46.8584 14.45C47.3984 14.65 47.8684 14.97 48.2684 15.41L45.5384 18.86C45.3384 18.64 45.0884 18.47 44.7884 18.35C44.4884 18.23 44.1484 18.17 43.7684 18.17C43.0084 18.17 42.3984 18.41 41.9384 18.89C41.4984 19.35 41.2784 20.05 41.2784 20.99ZM49.4911 29V14.42H54.0811V29H49.4911ZM51.8011 12.41C51.0811 12.41 50.4811 12.17 50.0011 11.69C49.5411 11.19 49.3111 10.59 49.3111 9.89C49.3111 9.17 49.5411 8.57 50.0011 8.09C50.4811 7.61 51.0811 7.37 51.8011 7.37C52.5211 7.37 53.1111 7.61 53.5711 8.09C54.0311 8.57 54.2611 9.17 54.2611 9.89C54.2611 10.59 54.0311 11.19 53.5711 11.69C53.1111 12.17 52.5211 12.41 51.8011 12.41ZM59.1734 29V13.16C59.1734 11.98 59.4334 10.92 59.9534 9.98C60.4934 9.02 61.2434 8.27 62.2034 7.73C63.1634 7.17 64.3034 6.89 65.6234 6.89C66.6234 6.89 67.4934 7.06 68.2334 7.4C68.9934 7.72 69.6534 8.17 70.2134 8.75L67.3334 11.63C67.1334 11.43 66.9034 11.28 66.6434 11.18C66.4034 11.06 66.1134 11 65.7734 11C65.1534 11 64.6634 11.18 64.3034 11.54C63.9434 11.9 63.7634 12.39 63.7634 13.01V29H59.1734ZM55.9634 18.32V14.42H67.9634V18.32H55.9634ZM74.5575 29.06L68.5575 14.42H73.5075L77.3175 26.03H75.4875L79.3875 14.42H84.3375L78.0975 29.06H74.5575ZM70.8075 35.15L75.1875 25.7L78.0975 29.06L75.5175 35.15H70.8075ZM97.8762 21.11L89.7162 7.82H95.1762L101.446 18.56H97.9362L104.206 7.82H109.546L101.326 21.11H97.8762ZM97.3062 29V18.95H102.016V29H97.3062ZM114.285 29.33C112.785 29.33 111.425 29 110.205 28.34C109.005 27.66 108.055 26.74 107.355 25.58C106.655 24.42 106.305 23.12 106.305 21.68C106.305 20.24 106.655 18.95 107.355 17.81C108.055 16.67 109.005 15.77 110.205 15.11C111.405 14.43 112.765 14.09 114.285 14.09C115.805 14.09 117.165 14.42 118.365 15.08C119.565 15.74 120.515 16.65 121.215 17.81C121.915 18.95 122.265 20.24 122.265 21.68C122.265 23.12 121.915 24.42 121.215 25.58C120.515 26.74 119.565 27.66 118.365 28.34C117.165 29 115.805 29.33 114.285 29.33ZM114.285 25.16C114.945 25.16 115.525 25.02 116.025 24.74C116.525 24.44 116.905 24.03 117.165 23.51C117.445 22.97 117.585 22.36 117.585 21.68C117.585 21 117.445 20.41 117.165 19.91C116.885 19.39 116.495 18.99 115.995 18.71C115.515 18.41 114.945 18.26 114.285 18.26C113.645 18.26 113.075 18.41 112.575 18.71C112.075 18.99 111.685 19.39 111.405 19.91C111.125 20.43 110.985 21.03 110.985 21.71C110.985 22.37 111.125 22.97 111.405 23.51C111.685 24.03 112.075 24.44 112.575 24.74C113.075 25.02 113.645 25.16 114.285 25.16ZM131.03 29.33C129.69 29.33 128.5 29.06 127.46 28.52C126.44 27.96 125.64 27.2 125.06 26.24C124.48 25.26 124.19 24.14 124.19 22.88V14.42H128.78V22.82C128.78 23.32 128.86 23.75 129.02 24.11C129.2 24.47 129.46 24.75 129.8 24.95C130.14 25.15 130.55 25.25 131.03 25.25C131.71 25.25 132.25 25.04 132.65 24.62C133.05 24.18 133.25 23.58 133.25 22.82V14.42H137.84V22.85C137.84 24.13 137.55 25.26 136.97 26.24C136.39 27.2 135.59 27.96 134.57 28.52C133.55 29.06 132.37 29.33 131.03 29.33ZM140.722 29V14.42H145.312V29H140.722ZM145.312 20.99L143.392 19.49C143.772 17.79 144.412 16.47 145.312 15.53C146.212 14.59 147.462 14.12 149.062 14.12C149.762 14.12 150.372 14.23 150.892 14.45C151.432 14.65 151.902 14.97 152.302 15.41L149.572 18.86C149.372 18.64 149.122 18.47 148.822 18.35C148.522 18.23 148.182 18.17 147.802 18.17C147.042 18.17 146.432 18.41 145.972 18.89C145.532 19.35 145.312 20.05 145.312 20.99Z" fill="#00162E"/>
<path d="M160.185 29V7.82H163.485L164.895 12.05V29H160.185ZM174.795 29L162.315 13.01L163.485 7.82L175.965 23.81L174.795 29ZM174.795 29L173.535 24.77V7.82H178.245V29H174.795ZM188.393 29.33C187.053 29.33 185.863 29.06 184.823 28.52C183.803 27.96 183.003 27.2 182.423 26.24C181.843 25.26 181.553 24.14 181.553 22.88V14.42H186.143V22.82C186.143 23.32 186.223 23.75 186.383 24.11C186.563 24.47 186.823 24.75 187.163 24.95C187.503 25.15 187.913 25.25 188.393 25.25C189.073 25.25 189.613 25.04 190.013 24.62C190.413 24.18 190.613 23.58 190.613 22.82V14.42H195.203V22.85C195.203 24.13 194.913 25.26 194.333 26.24C193.753 27.2 192.953 27.96 191.933 28.52C190.913 29.06 189.733 29.33 188.393 29.33ZM198.085 29V14.42H202.675V29H198.085ZM207.415 29V20.48C207.415 19.74 207.185 19.17 206.725 18.77C206.285 18.35 205.735 18.14 205.075 18.14C204.615 18.14 204.205 18.24 203.845 18.44C203.485 18.62 203.195 18.88 202.975 19.22C202.775 19.56 202.675 19.98 202.675 20.48L200.905 19.7C200.905 18.54 201.155 17.55 201.655 16.73C202.155 15.89 202.835 15.25 203.695 14.81C204.555 14.35 205.525 14.12 206.605 14.12C207.625 14.12 208.535 14.35 209.335 14.81C210.155 15.27 210.805 15.91 211.285 16.73C211.765 17.55 212.005 18.53 212.005 19.67V29H207.415ZM216.745 29V20.48C216.745 19.74 216.515 19.17 216.055 18.77C215.615 18.35 215.065 18.14 214.405 18.14C213.945 18.14 213.535 18.24 213.175 18.44C212.815 18.62 212.525 18.88 212.305 19.22C212.105 19.56 212.005 19.98 212.005 20.48L209.365 20.12C209.405 18.88 209.695 17.82 210.235 16.94C210.795 16.04 211.525 15.35 212.425 14.87C213.345 14.37 214.375 14.12 215.515 14.12C216.635 14.12 217.625 14.36 218.485 14.84C219.365 15.3 220.055 15.97 220.555 16.85C221.075 17.71 221.335 18.75 221.335 19.97V29H216.745ZM232.676 29.3C231.696 29.3 230.796 29.1 229.976 28.7C229.156 28.28 228.486 27.73 227.966 27.05C227.446 26.35 227.146 25.57 227.066 24.71V18.56C227.146 17.7 227.446 16.94 227.966 16.28C228.486 15.6 229.156 15.07 229.976 14.69C230.796 14.31 231.696 14.12 232.676 14.12C234.056 14.12 235.276 14.45 236.336 15.11C237.416 15.77 238.256 16.67 238.856 17.81C239.476 18.95 239.786 20.25 239.786 21.71C239.786 23.17 239.476 24.47 238.856 25.61C238.256 26.75 237.416 27.65 236.336 28.31C235.276 28.97 234.056 29.3 232.676 29.3ZM224.276 29V7.22H228.866V17.99L228.116 21.53L228.806 25.07V29H224.276ZM231.866 25.16C232.506 25.16 233.066 25.01 233.546 24.71C234.046 24.41 234.436 24 234.716 23.48C234.996 22.96 235.136 22.37 235.136 21.71C235.136 21.03 234.996 20.43 234.716 19.91C234.436 19.39 234.046 18.99 233.546 18.71C233.066 18.41 232.506 18.26 231.866 18.26C231.226 18.26 230.656 18.41 230.156 18.71C229.656 18.99 229.266 19.39 228.986 19.91C228.726 20.43 228.596 21.03 228.596 21.71C228.596 22.39 228.736 22.99 229.016 23.51C229.296 24.03 229.676 24.44 230.156 24.74C230.656 25.02 231.226 25.16 231.866 25.16ZM249.318 29.33C247.738 29.33 246.328 29.01 245.088 28.37C243.868 27.71 242.908 26.8 242.208 25.64C241.508 24.48 241.158 23.17 241.158 21.71C241.158 20.25 241.498 18.95 242.178 17.81C242.878 16.65 243.818 15.74 244.998 15.08C246.178 14.42 247.508 14.09 248.988 14.09C250.428 14.09 251.698 14.4 252.798 15.02C253.898 15.64 254.758 16.5 255.378 17.6C256.018 18.7 256.338 19.96 256.338 21.38C256.338 21.64 256.318 21.92 256.278 22.22C256.258 22.5 256.208 22.83 256.128 23.21L243.558 23.24V20.09L254.178 20.06L252.198 21.38C252.178 20.54 252.048 19.85 251.808 19.31C251.568 18.75 251.208 18.33 250.728 18.05C250.268 17.75 249.698 17.6 249.018 17.6C248.298 17.6 247.668 17.77 247.128 18.11C246.608 18.43 246.198 18.89 245.898 19.49C245.618 20.09 245.478 20.82 245.478 21.68C245.478 22.54 245.628 23.28 245.928 23.9C246.248 24.5 246.688 24.97 247.248 25.31C247.828 25.63 248.508 25.79 249.288 25.79C250.008 25.79 250.658 25.67 251.238 25.43C251.818 25.17 252.328 24.79 252.768 24.29L255.288 26.81C254.568 27.65 253.698 28.28 252.678 28.7C251.658 29.12 250.538 29.33 249.318 29.33ZM258.554 29V14.42H263.144V29H258.554ZM263.144 20.99L261.224 19.49C261.604 17.79 262.244 16.47 263.144 15.53C264.044 14.59 265.294 14.12 266.894 14.12C267.594 14.12 268.204 14.23 268.724 14.45C269.264 14.65 269.734 14.97 270.134 15.41L267.404 18.86C267.204 18.64 266.954 18.47 266.654 18.35C266.354 18.23 266.014 18.17 265.634 18.17C264.874 18.17 264.264 18.41 263.804 18.89C263.364 19.35 263.144 20.05 263.144 20.99Z" fill="#2563EB"/>
</svg>
