<svg width="440" height="134" viewBox="0 0 440 134" fill="none" xmlns="http://www.w3.org/2000/svg">
<rect x="185" width="70" height="70" rx="35" fill="#2563EB"/>
<g clip-path="url(#clip0_11877_949)">
<path fill-rule="evenodd" clip-rule="evenodd" d="M218.145 33.1454H207.942C207.45 33.1454 206.979 33.3408 206.631 33.6887C206.283 34.0366 206.087 34.5084 206.087 35.0004C206.087 35.4924 206.283 35.9642 206.631 36.3121C206.979 36.66 207.45 36.8554 207.942 36.8554H218.145V47.0579C218.145 47.5499 218.34 48.0217 218.688 48.3696C219.036 48.7175 219.508 48.9129 220 48.9129C220.492 48.9129 220.964 48.7175 221.312 48.3696C221.659 48.0217 221.855 47.5499 221.855 47.0579V36.8554H232.057C232.549 36.8554 233.021 36.66 233.369 36.3121C233.717 35.9642 233.912 35.4924 233.912 35.0004C233.912 34.5084 233.717 34.0366 233.369 33.6887C233.021 33.3408 232.549 33.1454 232.057 33.1454H221.855V22.9429C221.855 22.4509 221.659 21.9791 221.312 21.6312C220.964 21.2833 220.492 21.0879 220 21.0879C219.508 21.0879 219.036 21.2833 218.688 21.6312C218.34 21.9791 218.145 22.4509 218.145 22.9429V33.1454Z" fill="#E5E7EB"/>
</g>
<g clip-path="url(#clip1_11877_949)">
<path d="M440 132.597C440 143.642 431.046 152.597 420 152.597H20C8.95431 152.597 0 143.642 0 132.597V48C0 36.9543 8.95431 28 20 28H174.14C178.456 28 181.639 32.0217 181.639 36.3379C181.639 57.6904 198.948 75.0008 220.301 75.001C241.653 75.001 258.964 57.6905 258.964 36.3379C258.964 32.0217 262.147 28 266.463 28H420C431.046 28 440 36.9543 440 48V132.597Z" fill="#2563EB"/>
<g clip-path="url(#clip2_11877_949)">
<path d="M65.3529 58.4388L65.3513 58.4372L55.5612 48.6475C55.1439 48.2299 54.589 48 53.9989 48C53.4088 48 52.854 48.2298 52.4365 48.6473L42.6515 58.432C42.6482 58.4353 42.6449 58.4388 42.6416 58.4421C41.7847 59.304 41.7862 60.7023 42.6459 61.562C43.0386 61.955 43.5573 62.1825 44.112 62.2064C44.1345 62.2086 44.1572 62.2096 44.1801 62.2096H44.5703V69.4143C44.5703 70.84 45.7302 72 47.1563 72H50.9864C51.3746 72 51.6895 71.6852 51.6895 71.2969V65.6484C51.6895 64.9979 52.2188 64.4687 52.8693 64.4687H55.1285C55.7791 64.4687 56.3082 64.9979 56.3082 65.6484V71.2969C56.3082 71.6852 56.623 72 57.0114 72H60.8416C62.2676 72 63.4276 70.84 63.4276 69.4144V62.2097H63.7894C64.3794 62.2097 64.9342 61.9799 65.3518 61.5624C66.2124 60.7013 66.2128 59.3005 65.3529 58.4388Z" fill="#E5E7EB"/>
</g>
<path d="M38.0568 88V79.2727H39.1136V83.1591H43.767V79.2727H44.8239V88H43.767V84.0966H39.1136V88H38.0568ZM49.4624 88.1364C48.8714 88.1364 48.353 87.9957 47.907 87.7145C47.4638 87.4332 47.1172 87.0398 46.8672 86.5341C46.62 86.0284 46.4964 85.4375 46.4964 84.7614C46.4964 84.0795 46.62 83.4844 46.8672 82.9759C47.1172 82.4673 47.4638 82.0724 47.907 81.7912C48.353 81.5099 48.8714 81.3693 49.4624 81.3693C50.0533 81.3693 50.5703 81.5099 51.0135 81.7912C51.4595 82.0724 51.8061 82.4673 52.0533 82.9759C52.3033 83.4844 52.4283 84.0795 52.4283 84.7614C52.4283 85.4375 52.3033 86.0284 52.0533 86.5341C51.8061 87.0398 51.4595 87.4332 51.0135 87.7145C50.5703 87.9957 50.0533 88.1364 49.4624 88.1364ZM49.4624 87.233C49.9112 87.233 50.2805 87.1179 50.5703 86.8878C50.8601 86.6577 51.0746 86.3551 51.2138 85.9801C51.353 85.6051 51.4226 85.1989 51.4226 84.7614C51.4226 84.3239 51.353 83.9162 51.2138 83.5384C51.0746 83.1605 50.8601 82.8551 50.5703 82.6222C50.2805 82.3892 49.9112 82.2727 49.4624 82.2727C49.0135 82.2727 48.6442 82.3892 48.3544 82.6222C48.0646 82.8551 47.8501 83.1605 47.7109 83.5384C47.5717 83.9162 47.5021 84.3239 47.5021 84.7614C47.5021 85.1989 47.5717 85.6051 47.7109 85.9801C47.8501 86.3551 48.0646 86.6577 48.3544 86.8878C48.6442 87.1179 49.0135 87.233 49.4624 87.233ZM53.9634 88V81.4545H54.935V82.4773H55.0202C55.1566 82.1278 55.3768 81.8565 55.6808 81.6634C55.9847 81.4673 56.3498 81.3693 56.7759 81.3693C57.2077 81.3693 57.5671 81.4673 57.854 81.6634C58.1438 81.8565 58.3697 82.1278 58.5316 82.4773H58.5998C58.7674 82.1392 59.0188 81.8707 59.354 81.6719C59.6893 81.4702 60.0913 81.3693 60.56 81.3693C61.1452 81.3693 61.6239 81.5526 61.9961 81.919C62.3683 82.2827 62.5543 82.8494 62.5543 83.6193V88H61.5487V83.6193C61.5487 83.1364 61.4165 82.7912 61.1523 82.5838C60.8881 82.3764 60.5771 82.2727 60.2191 82.2727C59.7589 82.2727 59.4023 82.4119 59.1495 82.6903C58.8967 82.9659 58.7702 83.3153 58.7702 83.7386V88H57.7475V83.517C57.7475 83.1449 57.6268 82.8452 57.3853 82.6179C57.1438 82.3878 56.8327 82.2727 56.4521 82.2727C56.1907 82.2727 55.9464 82.3423 55.7191 82.4815C55.4947 82.6207 55.3129 82.8139 55.1737 83.0611C55.0373 83.3054 54.9691 83.5881 54.9691 83.9091V88H53.9634ZM67.1374 88.1364C66.5067 88.1364 65.9627 87.9972 65.5053 87.7188C65.0508 87.4375 64.6999 87.0455 64.4528 86.5426C64.2085 86.0369 64.0863 85.4489 64.0863 84.7784C64.0863 84.108 64.2085 83.517 64.4528 83.0057C64.6999 82.4915 65.0437 82.0909 65.484 81.804C65.9272 81.5142 66.4442 81.3693 67.0352 81.3693C67.3761 81.3693 67.7127 81.4261 68.0451 81.5398C68.3775 81.6534 68.68 81.8381 68.9528 82.0938C69.2255 82.3466 69.4428 82.6818 69.6048 83.0994C69.7667 83.517 69.8477 84.0312 69.8477 84.642V85.0682H64.8022V84.1989H68.8249C68.8249 83.8295 68.7511 83.5 68.6033 83.2102C68.4585 82.9205 68.2511 82.6918 67.9812 82.5241C67.7141 82.3565 67.3988 82.2727 67.0352 82.2727C66.6346 82.2727 66.288 82.3722 65.9954 82.571C65.7056 82.767 65.4826 83.0227 65.3263 83.3381C65.1701 83.6534 65.092 83.9915 65.092 84.3523V84.9318C65.092 85.4261 65.1772 85.8452 65.3477 86.1889C65.521 86.5298 65.761 86.7898 66.0678 86.9688C66.3746 87.1449 66.7312 87.233 67.1374 87.233C67.4016 87.233 67.6403 87.196 67.8533 87.1222C68.0692 87.0455 68.2553 86.9318 68.4116 86.7812C68.5678 86.6278 68.6886 86.4375 68.7738 86.2102L69.7454 86.483C69.6431 86.8125 69.4712 87.1023 69.2298 87.3523C68.9883 87.5994 68.69 87.7926 68.3349 87.9318C67.9798 88.0682 67.5806 88.1364 67.1374 88.1364Z" fill="#E5E7EB"/>
<g clip-path="url(#clip3_11877_949)">
<path d="M139.52 66.3774L142.919 69.7764C143.034 69.8831 143.125 70.0118 143.189 70.1548C143.253 70.2978 143.287 70.4522 143.29 70.6087C143.293 70.7652 143.264 70.9206 143.205 71.0658C143.147 71.2109 143.059 71.3428 142.949 71.4535C142.838 71.5642 142.706 71.6514 142.561 71.71C142.416 71.7687 142.26 71.7975 142.104 71.7947C141.947 71.7919 141.793 71.7577 141.65 71.694C141.507 71.6303 141.378 71.5384 141.272 71.4239L137.871 68.0249C137.659 67.8049 137.541 67.5104 137.544 67.2048C137.547 66.8991 137.67 66.6068 137.886 66.3908C138.102 66.1748 138.395 66.0524 138.7 66.0498C139.006 66.0473 139.3 66.165 139.52 66.3774Z" fill="#99BAEB"/>
<path fill-rule="evenodd" clip-rule="evenodd" d="M129.708 66.0793C131.769 66.0793 133.746 65.2606 135.203 63.8032C136.661 62.3459 137.479 60.3693 137.479 58.3083C137.479 56.2473 136.661 54.2708 135.203 52.8134C133.746 51.3561 131.769 50.5373 129.708 50.5373C127.647 50.5373 125.671 51.3561 124.213 52.8134C122.756 54.2708 121.937 56.2473 121.937 58.3083C121.937 60.3693 122.756 62.3459 124.213 63.8032C125.671 65.2606 127.647 66.0793 129.708 66.0793ZM129.708 68.4106C132.388 68.4106 134.957 67.3463 136.852 65.4517C138.746 63.5572 139.811 60.9876 139.811 58.3083C139.811 55.629 138.746 53.0595 136.852 51.1649C134.957 49.2704 132.388 48.2061 129.708 48.2061C127.029 48.2061 124.46 49.2704 122.565 51.1649C120.67 53.0595 119.606 55.629 119.606 58.3083C119.606 60.9876 120.67 63.5572 122.565 65.4517C124.46 67.3463 127.029 68.4106 129.708 68.4106Z" fill="#99BAEB"/>
</g>
<path d="M111.057 88V79.2727H114.108C114.716 79.2727 115.217 79.3778 115.612 79.5881C116.007 79.7955 116.301 80.0753 116.494 80.4276C116.688 80.777 116.784 81.1648 116.784 81.5909C116.784 81.9659 116.717 82.2756 116.584 82.5199C116.453 82.7642 116.28 82.9574 116.064 83.0994C115.851 83.2415 115.619 83.3466 115.369 83.4148V83.5C115.636 83.517 115.905 83.6108 116.175 83.7812C116.445 83.9517 116.67 84.196 116.852 84.5142C117.034 84.8324 117.125 85.2216 117.125 85.6818C117.125 86.1193 117.026 86.5128 116.827 86.8622C116.628 87.2116 116.314 87.4886 115.885 87.6932C115.456 87.8977 114.898 88 114.21 88H111.057ZM112.114 87.0625H114.21C114.901 87.0625 115.391 86.929 115.68 86.6619C115.973 86.392 116.119 86.0653 116.119 85.6818C116.119 85.3864 116.044 85.1136 115.893 84.8636C115.743 84.6108 115.528 84.4091 115.25 84.2585C114.972 84.1051 114.642 84.0284 114.261 84.0284H112.114V87.0625ZM112.114 83.108H114.074C114.392 83.108 114.679 83.0455 114.935 82.9205C115.193 82.7955 115.398 82.6193 115.548 82.392C115.702 82.1648 115.778 81.8977 115.778 81.5909C115.778 81.2074 115.645 80.8821 115.378 80.6151C115.111 80.3452 114.688 80.2102 114.108 80.2102H112.114V83.108ZM118.725 88V81.4545H119.697V82.4432H119.765C119.884 82.1193 120.1 81.8565 120.413 81.6548C120.725 81.4531 121.077 81.3523 121.469 81.3523C121.543 81.3523 121.636 81.3537 121.746 81.3565C121.857 81.3594 121.941 81.3636 121.998 81.3693V82.392C121.964 82.3835 121.886 82.3707 121.763 82.3537C121.644 82.3338 121.518 82.3239 121.384 82.3239C121.066 82.3239 120.782 82.3906 120.532 82.5241C120.285 82.6548 120.089 82.8366 119.944 83.0696C119.802 83.2997 119.731 83.5625 119.731 83.858V88H118.725ZM125.65 88.1364C125.059 88.1364 124.54 87.9957 124.094 87.7145C123.651 87.4332 123.305 87.0398 123.055 86.5341C122.808 86.0284 122.684 85.4375 122.684 84.7614C122.684 84.0795 122.808 83.4844 123.055 82.9759C123.305 82.4673 123.651 82.0724 124.094 81.7912C124.54 81.5099 125.059 81.3693 125.65 81.3693C126.241 81.3693 126.758 81.5099 127.201 81.7912C127.647 82.0724 127.994 82.4673 128.241 82.9759C128.491 83.4844 128.616 84.0795 128.616 84.7614C128.616 85.4375 128.491 86.0284 128.241 86.5341C127.994 87.0398 127.647 87.4332 127.201 87.7145C126.758 87.9957 126.241 88.1364 125.65 88.1364ZM125.65 87.233C126.099 87.233 126.468 87.1179 126.758 86.8878C127.048 86.6577 127.262 86.3551 127.401 85.9801C127.54 85.6051 127.61 85.1989 127.61 84.7614C127.61 84.3239 127.54 83.9162 127.401 83.5384C127.262 83.1605 127.048 82.8551 126.758 82.6222C126.468 82.3892 126.099 82.2727 125.65 82.2727C125.201 82.2727 124.832 82.3892 124.542 82.6222C124.252 82.8551 124.038 83.1605 123.898 83.5384C123.759 83.9162 123.69 84.3239 123.69 84.7614C123.69 85.1989 123.759 85.6051 123.898 85.9801C124.038 86.3551 124.252 86.6577 124.542 86.8878C124.832 87.1179 125.201 87.233 125.65 87.233ZM131.411 88L129.417 81.4545H130.474L131.888 86.4659H131.957L133.354 81.4545H134.428L135.809 86.4489H135.877L137.292 81.4545H138.349L136.354 88H135.366L133.934 82.9716H133.832L132.4 88H131.411ZM144.315 82.9205L143.411 83.1761C143.354 83.0256 143.271 82.8793 143.16 82.7372C143.052 82.5923 142.904 82.473 142.717 82.3793C142.529 82.2855 142.289 82.2386 141.996 82.2386C141.596 82.2386 141.262 82.331 140.995 82.5156C140.731 82.6974 140.599 82.929 140.599 83.2102C140.599 83.4602 140.69 83.6577 140.871 83.8026C141.053 83.9474 141.337 84.0682 141.724 84.1648L142.695 84.4034C143.281 84.5455 143.717 84.7628 144.004 85.0554C144.29 85.3452 144.434 85.7187 144.434 86.1761C144.434 86.5511 144.326 86.8864 144.11 87.1818C143.897 87.4773 143.599 87.7102 143.215 87.8807C142.832 88.0511 142.386 88.1364 141.877 88.1364C141.21 88.1364 140.657 87.9915 140.219 87.7017C139.782 87.4119 139.505 86.9886 139.388 86.4318L140.343 86.1932C140.434 86.5455 140.606 86.8097 140.859 86.9858C141.114 87.1619 141.448 87.25 141.86 87.25C142.329 87.25 142.701 87.1506 142.977 86.9517C143.255 86.75 143.394 86.5085 143.394 86.2273C143.394 86 143.315 85.8097 143.156 85.6562C142.996 85.5 142.752 85.3835 142.423 85.3068L141.332 85.0511C140.732 84.9091 140.292 84.6889 140.011 84.3906C139.732 84.0895 139.593 83.7131 139.593 83.2614C139.593 82.892 139.697 82.5653 139.904 82.2812C140.114 81.9972 140.4 81.7741 140.761 81.6122C141.124 81.4503 141.536 81.3693 141.996 81.3693C142.644 81.3693 143.153 81.5114 143.522 81.7955C143.894 82.0795 144.158 82.4545 144.315 82.9205ZM148.692 88.1364C148.061 88.1364 147.517 87.9972 147.06 87.7188C146.605 87.4375 146.255 87.0455 146.007 86.5426C145.763 86.0369 145.641 85.4489 145.641 84.7784C145.641 84.108 145.763 83.517 146.007 83.0057C146.255 82.4915 146.598 82.0909 147.039 81.804C147.482 81.5142 147.999 81.3693 148.59 81.3693C148.931 81.3693 149.267 81.4261 149.6 81.5398C149.932 81.6534 150.235 81.8381 150.507 82.0938C150.78 82.3466 150.998 82.6818 151.159 83.0994C151.321 83.517 151.402 84.0312 151.402 84.642V85.0682H146.357V84.1989H150.38C150.38 83.8295 150.306 83.5 150.158 83.2102C150.013 82.9205 149.806 82.6918 149.536 82.5241C149.269 82.3565 148.953 82.2727 148.59 82.2727C148.189 82.2727 147.843 82.3722 147.55 82.571C147.26 82.767 147.037 83.0227 146.881 83.3381C146.725 83.6534 146.647 83.9915 146.647 84.3523V84.9318C146.647 85.4261 146.732 85.8452 146.902 86.1889C147.076 86.5298 147.316 86.7898 147.623 86.9688C147.929 87.1449 148.286 87.233 148.692 87.233C148.956 87.233 149.195 87.196 149.408 87.1222C149.624 87.0455 149.81 86.9318 149.966 86.7812C150.123 86.6278 150.243 86.4375 150.328 86.2102L151.3 86.483C151.198 86.8125 151.026 87.1023 150.784 87.3523C150.543 87.5994 150.245 87.7926 149.89 87.9318C149.534 88.0682 149.135 88.1364 148.692 88.1364Z" fill="white" fill-opacity="0.6"/>
<g clip-path="url(#clip4_11877_949)">
<path d="M318.738 56.3591H312.911C312.456 56.3591 312.078 55.9817 312.078 55.5266C312.078 55.0715 312.456 54.6941 312.911 54.6941H318.738C318.959 54.6941 319.171 54.7818 319.327 54.9379C319.483 55.0941 319.571 55.3058 319.571 55.5266C319.571 55.7474 319.483 55.9591 319.327 56.1153C319.171 56.2714 318.959 56.3591 318.738 56.3591ZM307.083 57.2027C306.872 57.2027 306.661 57.125 306.495 56.9585L305.662 56.126C305.34 55.8041 305.34 55.2713 305.662 54.9494C305.984 54.6275 306.517 54.6275 306.839 54.9494L307.083 55.1936L308.992 53.2844C309.314 52.9625 309.847 52.9625 310.169 53.2844C310.491 53.6063 310.491 54.1391 310.169 54.461L307.671 56.9585C307.515 57.1147 307.304 57.2025 307.083 57.2027ZM318.738 64.1291H312.911C312.456 64.1291 312.078 63.7517 312.078 63.2966C312.078 62.8415 312.456 62.4641 312.911 62.4641H318.738C318.959 62.4641 319.171 62.5518 319.327 62.7079C319.483 62.8641 319.571 63.0758 319.571 63.2966C319.571 63.5174 319.483 63.7291 319.327 63.8853C319.171 64.0414 318.959 64.1291 318.738 64.1291ZM307.083 64.9727C306.872 64.9727 306.661 64.895 306.495 64.7285L305.662 63.896C305.34 63.5741 305.34 63.0413 305.662 62.7194C305.984 62.3975 306.517 62.3975 306.839 62.7194L307.083 62.9636L308.992 61.0544C309.314 60.7325 309.847 60.7325 310.169 61.0544C310.491 61.3763 310.491 61.9091 310.169 62.231L307.671 64.7285C307.515 64.8847 307.304 64.9725 307.083 64.9727Z" fill="white" fill-opacity="0.6"/>
<path d="M315.83 70.9334H309.17C303.143 70.9334 300.567 68.3582 300.567 62.3309V55.6709C300.567 49.6436 303.143 47.0684 309.17 47.0684H315.83C321.857 47.0684 324.432 49.6436 324.432 55.6709V62.3309C324.432 68.3582 321.857 70.9334 315.83 70.9334ZM309.17 48.7334C304.053 48.7334 302.232 50.5538 302.232 55.6709V62.3309C302.232 67.448 304.053 69.2684 309.17 69.2684H315.83C320.947 69.2684 322.767 67.448 322.767 62.3309V55.6709C322.767 50.5538 320.947 48.7334 315.83 48.7334H309.17Z" fill="white" fill-opacity="0.6"/>
</g>
<path d="M297.057 87V78.2727H300.006C300.688 78.2727 301.247 78.3892 301.685 78.6222C302.122 78.8523 302.446 79.169 302.656 79.5724C302.866 79.9759 302.972 80.4347 302.972 80.9489C302.972 81.4631 302.866 81.919 302.656 82.3168C302.446 82.7145 302.124 83.027 301.689 83.2543C301.254 83.4787 300.699 83.5909 300.023 83.5909H297.636V82.6364H299.989C300.455 82.6364 300.83 82.5682 301.114 82.4318C301.401 82.2955 301.608 82.1023 301.736 81.8523C301.866 81.5994 301.932 81.2983 301.932 80.9489C301.932 80.5994 301.866 80.294 301.736 80.0327C301.605 79.7713 301.396 79.5696 301.109 79.4276C300.822 79.2827 300.443 79.2102 299.972 79.2102H298.114V87H297.057ZM301.165 83.0795L303.312 87H302.085L299.972 83.0795H301.165ZM307.185 87.1364C306.594 87.1364 306.076 86.9957 305.63 86.7145C305.186 86.4332 304.84 86.0398 304.59 85.5341C304.343 85.0284 304.219 84.4375 304.219 83.7614C304.219 83.0795 304.343 82.4844 304.59 81.9759C304.84 81.4673 305.186 81.0724 305.63 80.7912C306.076 80.5099 306.594 80.3693 307.185 80.3693C307.776 80.3693 308.293 80.5099 308.736 80.7912C309.182 81.0724 309.529 81.4673 309.776 81.9759C310.026 82.4844 310.151 83.0795 310.151 83.7614C310.151 84.4375 310.026 85.0284 309.776 85.5341C309.529 86.0398 309.182 86.4332 308.736 86.7145C308.293 86.9957 307.776 87.1364 307.185 87.1364ZM307.185 86.233C307.634 86.233 308.003 86.1179 308.293 85.8878C308.583 85.6577 308.797 85.3551 308.936 84.9801C309.076 84.6051 309.145 84.1989 309.145 83.7614C309.145 83.3239 309.076 82.9162 308.936 82.5384C308.797 82.1605 308.583 81.8551 308.293 81.6222C308.003 81.3892 307.634 81.2727 307.185 81.2727C306.736 81.2727 306.367 81.3892 306.077 81.6222C305.787 81.8551 305.573 82.1605 305.434 82.5384C305.294 82.9162 305.225 83.3239 305.225 83.7614C305.225 84.1989 305.294 84.6051 305.434 84.9801C305.573 85.3551 305.787 85.6577 306.077 85.8878C306.367 86.1179 306.736 86.233 307.185 86.233ZM314.345 87.1364C313.754 87.1364 313.236 86.9957 312.79 86.7145C312.347 86.4332 312 86.0398 311.75 85.5341C311.503 85.0284 311.379 84.4375 311.379 83.7614C311.379 83.0795 311.503 82.4844 311.75 81.9759C312 81.4673 312.347 81.0724 312.79 80.7912C313.236 80.5099 313.754 80.3693 314.345 80.3693C314.936 80.3693 315.453 80.5099 315.896 80.7912C316.342 81.0724 316.689 81.4673 316.936 81.9759C317.186 82.4844 317.311 83.0795 317.311 83.7614C317.311 84.4375 317.186 85.0284 316.936 85.5341C316.689 86.0398 316.342 86.4332 315.896 86.7145C315.453 86.9957 314.936 87.1364 314.345 87.1364ZM314.345 86.233C314.794 86.233 315.163 86.1179 315.453 85.8878C315.743 85.6577 315.957 85.3551 316.097 84.9801C316.236 84.6051 316.305 84.1989 316.305 83.7614C316.305 83.3239 316.236 82.9162 316.097 82.5384C315.957 82.1605 315.743 81.8551 315.453 81.6222C315.163 81.3892 314.794 81.2727 314.345 81.2727C313.896 81.2727 313.527 81.3892 313.237 81.6222C312.947 81.8551 312.733 82.1605 312.594 82.5384C312.455 82.9162 312.385 83.3239 312.385 83.7614C312.385 84.1989 312.455 84.6051 312.594 84.9801C312.733 85.3551 312.947 85.6577 313.237 85.8878C313.527 86.1179 313.896 86.233 314.345 86.233ZM318.846 87V80.4545H319.818V81.4773H319.903C320.039 81.1278 320.26 80.8565 320.564 80.6634C320.868 80.4673 321.233 80.3693 321.659 80.3693C322.091 80.3693 322.45 80.4673 322.737 80.6634C323.027 80.8565 323.252 81.1278 323.414 81.4773H323.483C323.65 81.1392 323.902 80.8707 324.237 80.6719C324.572 80.4702 324.974 80.3693 325.443 80.3693C326.028 80.3693 326.507 80.5526 326.879 80.919C327.251 81.2827 327.437 81.8494 327.437 82.6193V87H326.431V82.6193C326.431 82.1364 326.299 81.7912 326.035 81.5838C325.771 81.3764 325.46 81.2727 325.102 81.2727C324.642 81.2727 324.285 81.4119 324.032 81.6903C323.779 81.9659 323.653 82.3153 323.653 82.7386V87H322.63V82.517C322.63 82.1449 322.51 81.8452 322.268 81.6179C322.027 81.3878 321.716 81.2727 321.335 81.2727C321.074 81.2727 320.829 81.3423 320.602 81.4815C320.377 81.6207 320.196 81.8139 320.056 82.0611C319.92 82.3054 319.852 82.5881 319.852 82.9091V87H318.846Z" fill="white" fill-opacity="0.6"/>
<g clip-path="url(#clip5_11877_949)">
<path d="M386.349 58.5609C387.937 58.5609 389.312 57.9912 390.436 56.8673C391.559 55.7436 392.129 54.3687 392.129 52.7803C392.129 51.1924 391.56 49.8173 390.436 48.6932C389.312 47.5696 387.937 47 386.349 47C384.76 47 383.385 47.5696 382.262 48.6934C381.138 49.8171 380.568 51.1922 380.568 52.7803C380.568 54.3687 381.138 55.7438 382.262 56.8675C383.386 57.9911 384.761 58.5609 386.349 58.5609H386.349ZM383.256 49.6878C384.118 48.8255 385.13 48.4064 386.349 48.4064C387.567 48.4064 388.579 48.8255 389.441 49.6878C390.304 50.5502 390.723 51.5619 390.723 52.7802C390.723 53.999 390.304 55.0105 389.441 55.8729C388.579 56.7354 387.567 57.1545 386.349 57.1545C385.13 57.1545 384.119 56.7352 383.256 55.8729C382.394 55.0107 381.974 53.999 381.974 52.7803C381.974 51.5619 382.394 50.5502 383.256 49.6878ZM396.463 65.4548C396.431 64.9872 396.365 64.477 396.269 63.9383C396.171 63.3956 396.046 62.8825 395.896 62.4136C395.74 61.9289 395.53 61.4503 395.269 60.9916C394.998 60.5155 394.68 60.101 394.324 59.7599C393.951 59.403 393.494 59.1161 392.966 58.9067C392.44 58.6986 391.857 58.5931 391.233 58.5931C390.988 58.5931 390.751 58.6936 390.293 58.9916C389.968 59.2034 389.642 59.4137 389.315 59.6225C389 59.8229 388.574 60.0106 388.048 60.1805C387.535 60.3466 387.014 60.4308 386.499 60.4308C385.985 60.4308 385.464 60.3466 384.95 60.1805C384.425 60.0107 383.999 59.8231 383.685 59.6227C383.321 59.39 382.991 59.1776 382.705 58.9914C382.248 58.6935 382.011 58.5929 381.766 58.5929C381.142 58.5929 380.559 58.6986 380.033 58.907C379.505 59.1159 379.049 59.4028 378.675 59.7601C378.319 60.1013 378.001 60.5157 377.73 60.9916C377.47 61.4503 377.259 61.9287 377.104 62.4138C376.954 62.8827 376.828 63.3956 376.731 63.9383C376.634 64.4763 376.569 64.9866 376.536 65.4554C376.504 65.9137 376.488 66.3906 376.488 66.8726C376.488 68.1254 376.887 69.1396 377.672 69.8876C378.448 70.6257 379.474 71 380.722 71H392.278C393.526 71 394.552 70.6257 395.328 69.8876C396.113 69.1401 396.512 68.1256 396.512 66.8724C396.511 66.3888 396.495 65.9118 396.463 65.4548ZM394.358 68.8686C393.846 69.3564 393.165 69.5935 392.278 69.5935H380.722C379.835 69.5935 379.154 69.3564 378.642 68.8688C378.139 68.3903 377.895 67.7372 377.895 66.8726C377.895 66.4229 377.91 65.9789 377.939 65.5526C377.968 65.1344 378.027 64.6749 378.115 64.1868C378.202 63.7047 378.312 63.2522 378.443 62.8426C378.569 62.4498 378.74 62.061 378.953 61.6863C379.156 61.3292 379.39 61.0229 379.648 60.7761C379.889 60.5452 380.193 60.3563 380.551 60.2146C380.882 60.0834 381.255 60.0116 381.659 60.0008C381.708 60.0271 381.796 60.077 381.938 60.1696C382.227 60.3581 382.56 60.5731 382.928 60.8083C383.344 61.0731 383.879 61.3122 384.518 61.5186C385.171 61.7299 385.838 61.8372 386.5 61.8372C387.161 61.8372 387.828 61.7299 388.481 61.5188C389.121 61.312 389.656 61.0731 390.071 60.8079C390.448 60.567 390.772 60.3583 391.061 60.1696C391.204 60.0772 391.291 60.027 391.34 60.0008C391.745 60.0116 392.117 60.0834 392.448 60.2145C392.806 60.3563 393.11 60.5454 393.352 60.7761C393.609 61.0227 393.843 61.3291 394.046 61.6865C394.259 62.061 394.431 62.4501 394.556 62.8425C394.688 63.2526 394.798 63.7049 394.884 64.1866C394.972 64.6757 395.031 65.1353 395.06 65.5528V65.5531C395.09 65.9777 395.105 66.4216 395.105 66.8726C395.105 67.7374 394.861 68.3904 394.358 68.8686H394.358Z" fill="white" fill-opacity="0.6"/>
</g>
<path d="M369.057 87V78.2727H372.006C372.69 78.2727 373.25 78.3963 373.685 78.6435C374.122 78.8878 374.446 79.2188 374.656 79.6364C374.866 80.054 374.972 80.5199 374.972 81.0341C374.972 81.5483 374.866 82.0156 374.656 82.4361C374.449 82.8565 374.128 83.1918 373.693 83.4418C373.259 83.6889 372.702 83.8125 372.023 83.8125H369.909V82.875H371.989C372.457 82.875 372.834 82.794 373.118 82.6321C373.402 82.4702 373.608 82.2514 373.736 81.9759C373.866 81.6974 373.932 81.3835 373.932 81.0341C373.932 80.6847 373.866 80.3722 373.736 80.0966C373.608 79.821 373.401 79.6051 373.114 79.4489C372.827 79.2898 372.446 79.2102 371.972 79.2102H370.114V87H369.057ZM376.538 87V80.4545H377.509V81.4432H377.577C377.697 81.1193 377.913 80.8565 378.225 80.6548C378.538 80.4531 378.89 80.3523 379.282 80.3523C379.356 80.3523 379.448 80.3537 379.559 80.3565C379.67 80.3594 379.754 80.3636 379.81 80.3693V81.392C379.776 81.3835 379.698 81.3707 379.576 81.3537C379.457 81.3338 379.33 81.3239 379.197 81.3239C378.879 81.3239 378.594 81.3906 378.344 81.5241C378.097 81.6548 377.901 81.8366 377.756 82.0696C377.614 82.2997 377.543 82.5625 377.543 82.858V87H376.538ZM383.462 87.1364C382.871 87.1364 382.353 86.9957 381.907 86.7145C381.464 86.4332 381.117 86.0398 380.867 85.5341C380.62 85.0284 380.496 84.4375 380.496 83.7614C380.496 83.0795 380.62 82.4844 380.867 81.9759C381.117 81.4673 381.464 81.0724 381.907 80.7912C382.353 80.5099 382.871 80.3693 383.462 80.3693C384.053 80.3693 384.57 80.5099 385.013 80.7912C385.46 81.0724 385.806 81.4673 386.053 81.9759C386.303 82.4844 386.428 83.0795 386.428 83.7614C386.428 84.4375 386.303 85.0284 386.053 85.5341C385.806 86.0398 385.46 86.4332 385.013 86.7145C384.57 86.9957 384.053 87.1364 383.462 87.1364ZM383.462 86.233C383.911 86.233 384.281 86.1179 384.57 85.8878C384.86 85.6577 385.075 85.3551 385.214 84.9801C385.353 84.6051 385.423 84.1989 385.423 83.7614C385.423 83.3239 385.353 82.9162 385.214 82.5384C385.075 82.1605 384.86 81.8551 384.57 81.6222C384.281 81.3892 383.911 81.2727 383.462 81.2727C383.013 81.2727 382.644 81.3892 382.354 81.6222C382.065 81.8551 381.85 82.1605 381.711 82.5384C381.572 82.9162 381.502 83.3239 381.502 83.7614C381.502 84.1989 381.572 84.6051 381.711 84.9801C381.85 85.3551 382.065 85.6577 382.354 85.8878C382.644 86.1179 383.013 86.233 383.462 86.233ZM390.878 80.4545V81.3068H387.35V80.4545H390.878ZM388.407 87V79.5511C388.407 79.1761 388.495 78.8636 388.671 78.6136C388.847 78.3636 389.076 78.1761 389.357 78.0511C389.638 77.9261 389.935 77.8636 390.248 77.8636C390.495 77.8636 390.696 77.8835 390.853 77.9233C391.009 77.9631 391.125 78 391.202 78.0341L390.912 78.9034C390.861 78.8864 390.79 78.8651 390.699 78.8395C390.611 78.8139 390.495 78.8011 390.35 78.8011C390.017 78.8011 389.777 78.8849 389.63 79.0526C389.485 79.2202 389.412 79.4659 389.412 79.7898V87H388.407ZM392.288 87V80.4545H393.293V87H392.288ZM392.799 79.3636C392.603 79.3636 392.434 79.2969 392.292 79.1634C392.153 79.0298 392.083 78.8693 392.083 78.6818C392.083 78.4943 392.153 78.3338 392.292 78.2003C392.434 78.0668 392.603 78 392.799 78C392.995 78 393.163 78.0668 393.302 78.2003C393.444 78.3338 393.515 78.4943 393.515 78.6818C393.515 78.8693 393.444 79.0298 393.302 79.1634C393.163 79.2969 392.995 79.3636 392.799 79.3636ZM396.141 78.2727V87H395.135V78.2727H396.141ZM400.727 87.1364C400.097 87.1364 399.553 86.9972 399.095 86.7188C398.641 86.4375 398.29 86.0455 398.043 85.5426C397.798 85.0369 397.676 84.4489 397.676 83.7784C397.676 83.108 397.798 82.517 398.043 82.0057C398.29 81.4915 398.634 81.0909 399.074 80.804C399.517 80.5142 400.034 80.3693 400.625 80.3693C400.966 80.3693 401.303 80.4261 401.635 80.5398C401.967 80.6534 402.27 80.8381 402.543 81.0938C402.815 81.3466 403.033 81.6818 403.195 82.0994C403.357 82.517 403.438 83.0312 403.438 83.642V84.0682H398.392V83.1989H402.415C402.415 82.8295 402.341 82.5 402.193 82.2102C402.048 81.9205 401.841 81.6918 401.571 81.5241C401.304 81.3565 400.989 81.2727 400.625 81.2727C400.224 81.2727 399.878 81.3722 399.585 81.571C399.295 81.767 399.072 82.0227 398.916 82.3381C398.76 82.6534 398.682 82.9915 398.682 83.3523V83.9318C398.682 84.4261 398.767 84.8452 398.938 85.1889C399.111 85.5298 399.351 85.7898 399.658 85.9688C399.964 86.1449 400.321 86.233 400.727 86.233C400.991 86.233 401.23 86.196 401.443 86.1222C401.659 86.0455 401.845 85.9318 402.001 85.7812C402.158 85.6278 402.278 85.4375 402.364 85.2102L403.335 85.483C403.233 85.8125 403.061 86.1023 402.82 86.3523C402.578 86.5994 402.28 86.7926 401.925 86.9318C401.57 87.0682 401.17 87.1364 400.727 87.1364Z" fill="white" fill-opacity="0.6"/>
<rect x="141.387" y="118.894" width="157.227" height="5.86667" rx="2.93333" fill="white"/>
</g>
<defs>
<clipPath id="clip0_11877_949">
<rect width="28" height="28" fill="white" transform="translate(206 21)"/>
</clipPath>
<clipPath id="clip1_11877_949">
<rect width="440" height="106" fill="white" transform="translate(0 28)"/>
</clipPath>
<clipPath id="clip2_11877_949">
<rect width="24" height="24" fill="white" transform="translate(42 48)"/>
</clipPath>
<clipPath id="clip3_11877_949">
<rect width="24" height="24" fill="white" transform="translate(119.5 48)"/>
</clipPath>
<clipPath id="clip4_11877_949">
<rect width="24" height="24" fill="white" transform="translate(300.5 47)"/>
</clipPath>
<clipPath id="clip5_11877_949">
<rect width="24" height="24" fill="white" transform="translate(374.5 47)"/>
</clipPath>
</defs>
</svg>
