<svg width="360" height="114" viewBox="0 0 360 114" fill="none" xmlns="http://www.w3.org/2000/svg">
<path d="M80.4204 17.4806C80.4204 17.4806 87.6104 17.4182 89.3416 19.8513C91.0728 22.2843 94.8784 35.3386 92.8976 39.6901C90.9013 44.0415 87.2049 37.8965 85.1462 35.2295C83.0874 32.5625 80.4204 17.4806 80.4204 17.4806Z" fill="#0052CC"/>
<path d="M80.4823 16.3867V17.1353C80.4823 17.1353 80.685 19.4592 77.8309 19.7868C74.9611 20.1299 72.7932 18.8821 72.8712 17.0885C73.1207 15.7005 73.4015 14.7491 73.4327 13.5949C73.4327 13.1738 73.4015 12.7215 73.3235 12.2068L78.8758 12.0977L80.5135 12.3628L80.4823 16.3867Z" fill="#FFB27D"/>
<path d="M80.5132 12.3628L80.4821 16.3867C79.905 16.6518 79.2343 16.8234 78.4857 16.8234C75.9435 16.8234 74.2902 14.9518 73.4324 13.5949C73.4324 13.1738 73.4012 12.7215 73.3232 12.2068L78.8756 12.0977L80.5132 12.3628Z" fill="#E2915A"/>
<path d="M72.9022 11.3195C73.5417 14.7819 78.0179 14.6728 79.9518 14.4544C80.4977 14.392 80.8408 14.314 80.8408 14.314C81.4491 14.1581 81.7922 13.1911 81.9482 11.9278C82.2601 9.41673 81.8702 5.73594 81.4491 4.80014C80.8097 3.39646 79.6087 1.85241 75.1013 2.95977C70.5939 4.06712 72.0756 6.87449 72.9022 11.3195Z" fill="#FFB27D"/>
<path d="M75.6007 113.522C75.6007 113.522 75.3356 111.4 74.7117 110.168C74.1034 108.936 70.1887 109.716 70.1887 109.716C70.1887 109.716 69.3933 110.387 69.2373 113.522H75.6007Z" fill="#0052CC"/>
<path d="M88.9357 113.523C88.0155 112.961 88.5302 108.766 88.5302 108.766C88.5302 108.766 92.8192 105.334 93.4119 107.97C94.0046 110.591 97.4826 111.776 99.4634 112.088C100.836 112.322 101.257 113.07 101.382 113.523H88.9357Z" fill="#0052CC"/>
<path d="M87.7659 27.2266C87.7659 27.2266 91.3998 34.7753 91.3219 36.6157C91.3219 36.6157 90.0429 35.3991 87.7659 35.5551C85.5044 35.7111 87.7659 27.2266 87.7659 27.2266Z" fill="#233862"/>
<path d="M79.952 14.4544C80.4979 14.392 80.841 14.314 80.841 14.314C81.4493 14.158 81.7924 13.1911 81.9484 11.9277C80.7943 12.2085 80.2796 13.0975 80.0456 13.4718C79.9521 13.6434 79.9364 14.0177 79.952 14.4544Z" fill="#E2915A"/>
<path d="M82.8687 16.4027C82.8687 16.4027 85.3797 12.2696 83.4301 12.098C81.4806 11.9109 80.7007 13.2366 80.42 13.7201C80.1393 14.2036 80.4824 16.3871 80.4824 16.3871L82.8687 16.4027Z" fill="#FFB27D"/>
<path d="M80.0612 82.9683C80.2327 83.9353 80.3419 84.7151 80.3731 85.2922C80.763 93.0593 86.9081 110.824 88.0154 111.245C89.7154 111.884 92.3824 110.527 93.7861 110.075C94.3632 109.888 94.7687 109.311 94.6283 108.718C91.587 94.7281 90.4641 74.5774 90.0585 62.6616C89.8558 56.657 88.8264 52.5083 88.8264 52.5083C88.8264 52.5083 73.8382 48.5 73.7602 53.5689C73.6822 58.0295 78.7199 75.5912 80.0612 82.9683Z" fill="#C65447"/>
<path d="M80.0612 82.9683L90.0585 62.6616C89.8558 56.657 88.8264 52.5083 88.8264 52.5083C88.8264 52.5083 73.8382 48.5 73.7602 53.5689C73.6822 58.0295 78.7199 75.5912 80.0612 82.9683Z" fill="#9E322A"/>
<path d="M83.383 53.585L75.46 110.996C75.46 110.996 71.9819 111.838 69.2837 111.167C69.2837 111.167 66.9598 80.6294 67.1626 73.2366C67.3498 65.8595 65.4938 53.4914 67.5837 52.1189C69.6736 50.762 83.383 53.585 83.383 53.585Z" fill="#C65447"/>
<path d="M66.4299 50.4981C66.4506 50.2486 66.4714 50.0042 66.4922 49.7651C66.4922 49.6923 66.4974 49.6247 66.5078 49.5623C66.5182 49.3752 66.5338 49.1828 66.5546 48.9853C66.5546 48.9333 66.5598 48.8813 66.5702 48.8293C66.6014 48.3406 66.6326 47.8571 66.6638 47.3788C66.6638 47.3268 66.6638 47.2748 66.6638 47.2228C66.6846 47.0253 66.7002 46.8277 66.7106 46.6302C66.7106 46.5886 66.7106 46.547 66.7106 46.5054C66.721 46.2663 66.7366 46.0323 66.7574 45.8036C66.7574 45.7932 66.7574 45.788 66.7574 45.788C66.7678 45.5592 66.7782 45.3357 66.7886 45.1173C66.7886 45.0653 66.7886 45.0133 66.7886 44.9613C66.799 44.7742 66.8094 44.587 66.8198 44.3999C66.8198 44.3583 66.8198 44.3167 66.8198 44.2751C66.8302 44.0568 66.8406 43.8384 66.851 43.62C66.851 43.5889 66.851 43.5577 66.851 43.5265C66.8614 43.3393 66.8718 43.1522 66.8822 42.965C66.8822 42.9026 66.8822 42.8402 66.8822 42.7778C66.8926 42.6219 66.8977 42.4659 66.8977 42.3099C66.8977 42.2475 66.903 42.1852 66.9133 42.1228C66.9133 41.9356 66.9185 41.7485 66.9289 41.5613C66.9289 41.4157 66.9341 41.2754 66.9445 41.1402C66.9445 41.109 66.9445 41.0778 66.9445 41.0466C66.9653 40.298 66.9913 39.5753 67.0225 38.8787C67.0225 38.8683 67.0225 38.8527 67.0225 38.8319C67.0329 38.4264 67.0485 38.0209 67.0693 37.6154C67.0693 37.5946 67.0693 37.5738 67.0693 37.553C67.0797 37.3866 67.0901 37.2203 67.1005 37.0539C67.1005 37.0123 67.1005 36.9707 67.1005 36.9291C67.1109 36.7524 67.1213 36.5808 67.1317 36.4145C67.1317 36.4041 67.1317 36.3885 67.1317 36.3677C67.1421 36.1909 67.1525 36.0141 67.1629 35.8374C67.1629 35.7854 67.1629 35.7334 67.1629 35.6814C67.1733 35.5566 67.1837 35.4371 67.1941 35.3227C67.1941 35.2603 67.1941 35.1979 67.1941 35.1355C67.2045 35.0108 67.2149 34.886 67.2253 34.7612C67.2357 34.678 67.2409 34.6001 67.2409 34.5273C67.2513 34.4233 67.2617 34.3193 67.2721 34.2153C67.2721 34.1946 67.2721 34.1789 67.2721 34.1686C67.2825 34.023 67.2929 33.8826 67.3033 33.7475C67.3137 33.7059 67.3189 33.6591 67.3189 33.6071C67.3293 33.4615 67.3448 33.3159 67.3656 33.1704C67.3137 33.108 67.2617 33.0508 67.2097 32.9988C63.7784 28.8657 62.016 23.5161 63.4041 21.551C65.6656 18.3225 72.8712 17.0904 72.8712 17.0904C72.8712 18.2913 75.4602 19.7886 77.5346 19.6482C77.8777 19.6326 78.2052 19.5546 78.486 19.461C79.1722 17.7922 79.6245 16.6848 79.6245 16.6848C79.6245 16.6848 80.4511 15.0004 83.3833 15.9674C83.3833 15.9674 83.4769 17.4647 83.3833 19.695C83.3833 19.7366 83.3833 19.7782 83.3833 19.8197C85.6136 21.8473 88.2962 24.9198 88.2962 27.8675C88.3118 32.0162 88.3586 35.5254 88.4366 38.4732C88.5145 41.7485 88.6393 44.3375 88.7641 46.3806C89.1228 52.4165 89.5127 53.6954 89.2632 53.6798C89.2632 53.6798 86.9549 55.7854 80.8878 55.7386C77.0823 55.723 73.9786 55.2863 71.6703 54.8184C68.5666 54.1633 66.8977 53.4303 66.8977 53.4303C66.2427 53.4147 66.3831 51.122 66.4299 50.4981Z" fill="#0052CC"/>
<path d="M82.8223 1.50658C82.8223 1.50658 80.8416 1.35061 78.5021 0.336837C76.6149 -0.489779 74.2131 0.414816 73.4332 0.820325C73.4644 0.695553 73.5112 0.523991 73.6204 0.352429C73.6204 0.352429 73.2773 0.601981 73.2305 0.945105C73.1889 0.976298 73.1733 0.997097 73.1837 1.0075C73.1837 1.0075 72.7938 0.929505 72.5286 1.03868C72.5286 1.03868 72.7158 1.02308 72.7782 1.13226C72.7782 1.14265 72.7886 1.15306 72.8094 1.16346C69.846 2.59834 69.5653 7.2773 70.5167 8.35346C71.6708 9.66357 73.0433 12.5957 73.0433 12.5957C73.0433 12.5957 73.5424 11.8939 73.3397 10.7553C73.1213 9.60118 74.1195 9.60117 75.3672 9.08649C76.6149 8.5718 75.57 7.10574 76.6617 6.21674C77.7691 5.32774 81.7774 5.85801 81.715 5.17176C83.2123 4.64148 82.8223 1.64695 82.8223 1.50658Z" fill="#233862"/>
<path d="M71.9976 38.7378C73.1673 43.448 85.8785 45.881 88.7638 46.3801C88.6391 44.337 88.5143 41.7479 88.4363 38.4727L71.9976 38.7378Z" fill="#233862"/>
<path d="M74.7898 40.2664C74.665 40.2664 71.9512 39.8609 71.4677 39.627C70.9842 39.3774 68.7695 36.2269 70.22 35.4315C71.6705 34.6205 75.5696 37.8489 75.5696 37.8489L74.7898 40.2664Z" fill="#FFB27D"/>
<path d="M91.2284 41.2015C91.2284 41.2015 80.7631 41.7629 73.7603 40.2657C73.7603 40.2657 73.5731 38.2381 75.7878 37.3335C75.7878 37.3335 86.721 35.0252 89.3412 35.6647C91.977 36.3042 91.2284 41.2015 91.2284 41.2015Z" fill="#0052CC"/>
<path d="M67.21 32.9972C69.3779 35.6174 72.2164 37.7541 75.3514 38.2532C81.8551 35.3055 83.1652 25.2301 83.3836 19.6934C83.3836 19.6934 80.3111 30.8605 76.1156 34.7596C75.367 35.4615 74.5715 35.9293 73.7605 36.0541C73.7605 36.0541 68.4733 34.5569 67.3659 33.1532C67.2827 33.0492 67.2308 32.9972 67.21 32.9972Z" fill="#233862"/>
<path d="M69.3779 26.666C69.3779 26.666 72.6376 30.7523 74.5872 27.1027C74.5872 27.1027 72.544 29.0835 69.3779 26.666Z" fill="#233862"/>
<path d="M343.405 103.238H162.407L169.753 76.0996H343.405V103.238Z" fill="#1C2948"/>
<path d="M208.962 69.9868H208.978C211.681 69.8828 214.499 69.8308 217.431 69.8308C217.431 69.8308 233.652 55.7627 252.399 50.9746C233.121 55.7316 208.962 69.9868 208.962 69.9868Z" fill="#163560"/>
<path d="M355.804 80.5467V65.0125C355.804 65.0125 337.571 62.9382 326.56 58.9455C301.044 49.572 287.335 49.4004 264.158 49.4004C246.566 49.4004 228.754 61.1758 221.19 66.8529C218.648 68.7713 215.56 69.8162 212.378 69.8942C184.538 70.5025 167.335 76.0549 158.804 79.798C154.796 81.5604 152.222 85.522 152.222 89.9046V95.1294C151.645 95.1294 151.177 95.5973 151.177 96.1744V104.846C151.177 105.423 151.645 105.891 152.222 105.891H164.107H168.817C167.179 102.943 166.275 99.5276 166.368 95.8937C166.618 85.5376 175.087 77.0998 185.443 76.8659C196.423 76.6319 205.406 85.4596 205.406 96.3927C205.406 99.8396 204.502 103.084 202.942 105.891H305.115C303.462 102.943 302.557 99.5276 302.651 95.8937C302.916 85.5376 311.369 77.0998 321.725 76.8659C332.705 76.6319 341.689 85.4596 341.689 96.3927C341.689 99.8396 340.8 103.084 339.225 105.891H343.311C357.426 105.891 359.422 91.4486 359.562 84.3678C359.594 82.2779 357.909 80.5467 355.804 80.5467Z" fill="#F1A34F"/>
<path d="M255.222 52.2075C239.095 56.2782 221.814 70.2215 221.814 70.2215L267.559 69.2389C269.368 69.2077 270.974 68.1472 271.738 66.5251L278.741 51.3965H261.772C259.573 51.3965 257.358 51.6616 255.222 52.2075Z" fill="#163560"/>
<path d="M281.44 51.7402L275.014 66.4634C274.515 67.5863 275.341 68.8496 276.574 68.8496C283.062 68.8496 300.078 68.6157 309.872 66.167C312.227 65.5744 313.023 62.611 311.26 60.9266C307.283 57.121 298.627 51.7402 281.44 51.7402Z" fill="#163560"/>
<path d="M153.408 84.9136H160.099C160.099 84.9136 171.032 74.7135 188.562 71.8125C188.562 71.8125 156.168 75.3841 153.408 84.9136Z" fill="#C65447"/>
<path d="M355.804 80.5468H354.041C353.043 80.5468 352.138 79.9853 351.717 79.0807C350.688 76.9128 348.442 72.8109 344.995 69.8788C343.67 68.7558 344.465 66.5879 346.212 66.5879H355.227C355.539 66.5879 355.804 66.8374 355.804 67.165V80.5468Z" fill="#C65447"/>
<path d="M268.042 73.5593H259.152C258.669 73.5593 258.263 73.1694 258.263 72.6703C258.263 72.1868 258.669 71.7812 259.152 71.7812H268.042C268.541 71.7812 268.931 72.1868 268.931 72.6703C268.931 73.1694 268.541 73.5593 268.042 73.5593Z" fill="#DD7F30"/>
<path d="M307.361 73.5593H298.471C297.971 73.5593 297.582 73.1694 297.582 72.6703C297.582 72.1868 297.971 71.7812 298.471 71.7812H307.361C307.844 71.7812 308.25 72.1868 308.25 72.6703C308.25 73.1694 307.844 73.5593 307.361 73.5593Z" fill="#DD7F30"/>
<path d="M299.828 79.3301H219.662C216.34 79.3301 214.297 82.9641 216.028 85.8026L221.191 94.2872C222.314 96.1275 224.762 96.6422 226.525 95.3789C233.387 90.4972 253.132 80.3594 299.828 79.3301Z" fill="#DD7F30"/>
<path d="M339.303 96.3928C339.303 105.782 331.707 113.377 322.334 113.377C312.945 113.377 305.349 105.782 305.349 96.3928C305.349 87.0193 312.945 79.4082 322.334 79.4082C331.707 79.4082 339.303 87.0193 339.303 96.3928Z" fill="#2D3A62"/>
<path fill-rule="evenodd" clip-rule="evenodd" d="M332.846 96.3929C332.846 102.21 328.136 106.921 322.334 106.921C316.516 106.921 311.806 102.21 311.806 96.3929C311.806 90.591 316.516 85.8809 322.334 85.8809C328.136 85.8809 332.846 90.591 332.846 96.3929ZM323.769 91.3085C324.564 91.5424 325.282 91.9479 325.874 92.4782L329.524 90.2323C328.073 88.5479 326.061 87.3781 323.769 87.035V91.3085ZM315.128 90.2167L318.778 92.4626C319.37 91.9323 320.088 91.5268 320.883 91.3085V87.0194C318.591 87.3625 316.579 88.5323 315.128 90.2167ZM317.234 97.7966C317.109 97.3443 317.047 96.8764 317.047 96.3773C317.047 95.8782 317.125 95.3791 317.249 94.9113L313.615 92.6653C313.116 93.8039 312.851 95.0672 312.851 96.3773C312.851 97.6874 313.116 98.9352 313.584 100.058L317.234 97.7966ZM320.883 101.462C320.072 101.228 319.339 100.807 318.747 100.261L315.097 102.507C316.548 104.207 318.575 105.392 320.883 105.751V101.462ZM322.334 98.7636C323.644 98.7636 324.72 97.6874 324.72 96.3773C324.72 95.0516 323.644 93.9911 322.334 93.9911C321.008 93.9911 319.932 95.0516 319.932 96.3773C319.932 97.6874 321.008 98.7636 322.334 98.7636ZM329.555 102.507L325.905 100.261C325.313 100.807 324.58 101.228 323.769 101.462V105.735C326.077 105.392 328.105 104.207 329.555 102.507ZM331.068 100.043C331.536 98.9196 331.801 97.6718 331.801 96.3773C331.801 95.0516 331.536 93.8039 331.052 92.6498L327.403 94.9113C327.543 95.3791 327.605 95.8626 327.605 96.3773C327.605 96.8608 327.543 97.3443 327.418 97.7966L331.068 100.043Z" fill="#98BDF4"/>
<path d="M202.88 96.5178C202.88 105.891 195.284 113.502 185.895 113.502C176.522 113.502 168.911 105.891 168.911 96.5178C168.911 87.1287 176.522 79.5332 185.895 79.5332C195.284 79.5332 202.88 87.1287 202.88 96.5178Z" fill="#2D3A62"/>
<path fill-rule="evenodd" clip-rule="evenodd" d="M196.423 96.5179C196.423 102.32 191.712 107.03 185.895 107.03C180.093 107.03 175.383 102.32 175.383 96.5179C175.383 90.7004 180.093 85.9902 185.895 85.9902C191.712 85.9902 196.423 90.7004 196.423 96.5179ZM187.345 91.4334C188.141 91.6518 188.858 92.0573 189.451 92.6031L193.085 90.3573C191.65 88.6728 189.638 87.5031 187.345 87.1444V91.4334ZM178.705 90.3573L182.354 92.6031C182.947 92.0573 183.665 91.6674 184.46 91.4334V87.1444C182.167 87.5031 180.14 88.6728 178.705 90.3573ZM180.81 97.9372C180.686 97.4849 180.608 97.017 180.608 96.5179C180.608 96.0032 180.686 95.5197 180.826 95.0518L177.176 92.8059C176.693 93.9445 176.428 95.1922 176.428 96.5179C176.428 97.828 176.677 99.0601 177.161 100.199L180.81 97.9372ZM184.46 101.587C183.649 101.368 182.916 100.947 182.308 100.386L178.674 102.647C180.109 104.347 182.152 105.533 184.46 105.876V101.587ZM185.895 98.9042C187.221 98.9042 188.281 97.828 188.281 96.5023C188.281 95.1922 187.221 94.116 185.895 94.116C184.585 94.116 183.509 95.1922 183.509 96.5023C183.509 97.828 184.585 98.9042 185.895 98.9042ZM193.116 102.632L189.482 100.386C188.874 100.947 188.156 101.368 187.345 101.587V105.876C189.654 105.533 191.681 104.332 193.116 102.632ZM194.629 100.183C195.112 99.0601 195.378 97.8124 195.378 96.5023C195.378 95.1922 195.097 93.9289 194.613 92.7903L190.964 95.0362C191.104 95.5041 191.182 96.0032 191.182 96.5023C191.182 97.0014 191.104 97.4693 190.979 97.9216L194.629 100.183Z" fill="#98BDF4"/>
<path d="M19.8431 110.748L17.5972 111.917C17.5972 111.917 16.2559 110.171 15.055 108.05C14.2128 106.568 13.4329 104.899 13.2458 103.542C12.7779 100.22 9.28426 94.7769 9.64298 93.8567C10.0017 92.9209 16.9578 91.3301 16.9578 91.3301C16.9578 91.3301 18.3147 100.626 19.2192 106.646C19.4844 108.393 19.7027 109.874 19.8431 110.748Z" fill="#FFB27D"/>
<path d="M18.1275 97.7697C16.8486 98.3935 15.6477 98.7523 14.6339 98.9394C13.1054 99.2513 11.9513 99.189 11.4366 99.1422C11.2495 99.1266 11.1559 99.111 11.1559 99.111C11.1559 99.111 9.90815 98.2064 8.45767 96.1008C7.11637 94.1825 6.13379 91.4375 6.13379 91.3907L16.755 90.3613L18.1275 97.7697Z" fill="#2B478B"/>
<path d="M14.6343 98.9392C13.1058 99.2511 11.9517 99.1887 11.437 99.1419L12.6379 94.5098C12.6379 94.5098 14.182 96.9272 14.6343 98.9392Z" fill="#233862"/>
<path d="M19.8433 110.746L17.5974 111.916C17.5974 111.916 16.2561 110.169 15.0552 108.048C15.991 107.97 17.613 107.689 19.2194 106.645C19.4846 108.391 19.7029 109.873 19.8433 110.746Z" fill="#739AF0"/>
<path d="M14.7277 93.4519C14.7277 93.4519 11.8892 97.4602 10.1579 103.106C9.75243 104.432 8.37994 106.101 6.97625 107.567C5.61935 108.986 4.24686 110.249 3.74777 110.858L1.45508 109.766C1.45508 109.766 2.2661 107.442 3.45143 105.352C3.88813 104.572 4.38723 103.824 4.91751 103.231C5.65055 102.404 5.401 92.0794 6.13404 91.3932C6.86707 90.7225 14.7277 93.4519 14.7277 93.4519Z" fill="#FFB27D"/>
<path d="M16.0842 91.0625L11.8888 99.5938C11.8576 99.5938 8.75386 99.6874 6.55475 98.4552C5.29143 97.7534 4.71436 96.9112 4.71436 96.9112L6.02446 91.0625H16.0842Z" fill="#2B478B"/>
<path d="M8.27051 75.0293H8.28692C8.2705 75.0457 8.27051 75.0293 8.27051 75.0293Z" fill="#FFB27D"/>
<path d="M14.1504 78.5862L8.28613 75.0302C8.31733 75.0302 8.4421 74.843 8.8788 73.5797C9.06596 73.0338 9.15954 72.5659 9.20633 72.1916C9.21673 72.1604 9.22192 72.124 9.22192 72.0824C9.28431 71.5365 9.23752 71.2246 9.23752 71.2246L10.532 71.6925L12.9027 72.5503C12.8715 73.1586 12.9651 73.5797 13.0899 73.876C13.4018 74.5779 13.9789 74.5935 13.9945 74.5935L14.1504 78.5862Z" fill="#FFB27D"/>
<path d="M13.0895 73.8769C10.7968 74.0796 9.50228 72.5668 9.20594 72.1925C9.16435 72.1405 9.14355 72.1145 9.14355 72.1145C9.14355 72.1145 9.16955 72.1041 9.22154 72.0833C9.4087 72.0365 9.92338 71.8805 10.5316 71.6934L12.9023 72.5512C12.8711 73.1594 12.9647 73.5805 13.0895 73.8769Z" fill="#ED985F"/>
<path d="M13.1991 73.0482C13.1991 73.0482 8.09908 73.6097 7.98991 70.1629C7.89633 66.7004 7.1321 65.1252 10.6725 64.8132C14.1973 64.5013 15.0395 65.7802 15.2423 66.95C15.8973 70.5995 14.6496 72.8923 13.1991 73.0482Z" fill="#FFB27D"/>
<path d="M26.643 60.3069C26.4403 60.1821 26.0972 60.1977 25.6604 60.3224C25.3485 60.416 24.9742 60.5564 24.5843 60.7747C24.5531 60.7747 24.5375 60.7904 24.5063 60.806C23.5861 61.305 23.6173 63.6289 23.6173 63.6601C23.0246 64.1436 20.7943 68.6822 20.264 69.9299C19.7494 71.1776 14.8521 74.9364 14.8521 74.9364L16.0842 79.0695C17.5347 78.3209 21.9953 73.2052 22.9155 71.6923C23.8513 70.1795 25.1926 65.1886 25.0054 64.3464C25.0054 64.336 25.0054 64.3308 25.0054 64.3308C25.021 64.2996 25.1302 64.128 25.3017 63.8785C25.5669 63.473 26.0036 62.8179 26.2843 62.4904C26.4871 62.2564 26.6742 61.7885 26.7522 61.3518C26.8458 60.8683 26.8146 60.4004 26.643 60.3069Z" fill="#FFB27D"/>
<path d="M10.9376 66.4984C9.14404 66.0461 9.83029 69.2434 9.37799 69.025C8.86331 68.7755 7.98991 68.7911 8.11468 69.3994C8.25505 70.0232 8.4578 70.2416 8.56698 70.6315C8.66056 71.0058 8.56697 71.77 8.14587 71.6141C7.72476 71.4737 3.81003 66.9975 6.57062 63.5351C9.3312 60.057 17.5662 62.1938 14.9772 65.8277C14.5093 66.4672 12.2322 66.8259 10.9376 66.4984Z" fill="#233862"/>
<path d="M17.5034 92.3116C17.5034 92.3116 15.975 93.1382 13.5575 93.0914C12.0135 93.0758 8.73819 92.4052 6.64825 91.6409C5.44732 91.2042 4.62071 90.7519 4.72988 90.362C4.87025 89.8006 5.89962 85.5271 6.83541 81.5656C7.70882 77.9472 8.50424 74.5939 8.50424 74.5939C8.50424 74.5939 10.9061 76.294 12.2942 75.6857C13.6823 75.093 13.5107 74.4068 13.5107 74.4068C13.5107 74.4068 14.4153 74.0481 14.852 74.1728C15.2731 74.3132 16.4897 73.627 16.4897 73.627C16.4897 73.627 17.831 74.6563 17.8778 76.8866C17.8934 77.2142 17.8622 77.5729 17.8154 77.9472L16.8484 79.0701C16.8484 79.0701 18.8915 85.5427 17.5034 92.3116Z" fill="#0052CC"/>
<path d="M23.5862 113.522H16.8485C16.8485 113.522 16.7237 112.43 16.8797 111.494C16.8953 111.369 16.9577 111.276 17.0513 111.182C17.4412 111.323 18.0183 111.416 18.6577 111.182C19.188 110.995 19.5779 110.699 19.8587 110.434C19.921 110.512 21.3091 111.837 21.9486 111.837C22.6192 111.837 23.6174 112.149 23.5862 113.522Z" fill="#0052CC"/>
<path d="M6.97625 107.564C5.61935 108.984 4.24686 110.247 3.74777 110.855L1.45508 109.763C1.45508 109.763 2.2661 107.44 3.45143 105.35C3.85694 105.989 4.9331 107.299 6.97625 107.564Z" fill="#739AF0"/>
<path d="M4.2464 110.262C4.2464 110.262 4.15282 111.728 4.65191 111.915C5.1354 112.118 6.04 112.586 6.04 113.522H2.67115C2.67115 113.522 0.347264 112.383 0.0353338 111.884C-0.276597 111.401 1.57939 109.326 1.57939 109.326C1.57939 109.326 2.73353 110.589 4.2464 110.262Z" fill="#0052CC"/>
<path d="M6.64825 91.6403C5.44732 91.2036 4.62071 90.7513 4.72988 90.3614C4.87025 89.7999 5.89962 85.5264 6.83541 81.5649C7.11615 81.0502 7.30331 80.7383 7.30331 80.7383C7.30331 80.7383 9.09691 88.9733 6.64825 91.6403Z" fill="#0E61DE"/>
<path d="M11.8734 86.6332C11.3431 86.29 10.0486 86.4928 9.84586 86.5396C9.11282 86.1029 7.02289 84.6524 6.04031 83.7946C5.82195 83.6074 5.82196 83.2175 5.97792 82.9836C6.38343 82.3597 7.06968 81.2991 7.30363 80.7377C7.63115 79.9422 9.83027 75.4192 8.56695 75.0449C8.56695 75.0449 4.02835 76.0119 2.23475 83.0771C2.06319 83.7634 2.23475 84.4964 2.71825 85.0267C3.54486 85.9469 5.35406 87.2726 9.58072 87.7717C9.58072 87.7717 10.9064 88.6139 12.2009 87.8497C12.622 87.6157 12.4505 87.0231 11.8734 86.6332Z" fill="#FFB27D"/>
<path d="M8.50482 74.5938C8.50482 74.5938 5.83781 74.7809 3.6543 77.6819C3.6543 77.6819 4.40293 80.3489 7.84976 81.0663C7.84976 81.0663 9.98649 76.2626 8.50482 74.5938Z" fill="#0E61DE"/>
<path d="M26.7526 61.3692C26.6746 61.8059 26.4874 62.2738 26.2847 62.5077C26.0039 62.8353 25.5672 63.4747 25.3021 63.8958C24.5378 63.2252 24.5067 61.6967 24.5846 60.7921C24.9746 60.5738 25.3489 60.4334 25.6608 60.3398C26.1911 60.5582 26.5342 60.9325 26.7526 61.3692Z" fill="#E8945B"/>
<path d="M42.0995 4.82973C42.0371 4.59578 41.1481 1.86638 36.8903 2.77098C36.8903 2.77098 39.027 2.50584 39.6041 3.31685C39.6041 3.31685 37.9196 2.55264 36.8591 3.19209C35.7985 3.84715 35.6114 6.03067 35.7829 6.68572C35.9389 7.35637 37.1086 9.33713 37.8729 9.33713C38.1692 9.33713 38.4811 9.24355 38.7619 9.11877C38.6475 9.4619 38.5435 9.84662 38.4499 10.2729C37.6233 14.1409 40.1967 17.0886 41.538 16.3556C42.3958 15.8877 43.0353 17.3849 43.0353 17.3849L50.1317 7.99581C50.1317 7.99581 45.1876 2.05355 42.0995 4.82973Z" fill="#233862"/>
<path d="M60.8462 59.4176C60.659 60.135 60.0351 61.7727 59.5672 61.7727C59.1773 61.7727 59.037 59.7763 58.5223 59.3552C57.8048 58.7313 57.2122 57.4524 57.103 57.1405C56.9158 56.5011 56.7287 56.3607 56.7287 56.3607C56.7287 56.3607 50.9112 45.7082 50.4433 42.9944C50.3029 42.1054 49.913 40.3118 49.4763 38.3311C48.9772 36.1632 48.4157 33.7301 47.9946 31.9209C49.8506 31.5622 51.9094 31.4218 53.5938 31.3906C53.9213 33.6053 54.2332 35.8512 54.4984 37.8164C54.8883 40.733 55.1846 42.9944 55.3718 43.4779C55.8709 44.8036 57.2746 51.978 58.5847 55.7056C58.7406 56.0643 59.1617 57.0157 59.6296 57.3433C60.2223 57.7488 61.0333 58.7002 60.8462 59.4176Z" fill="#E8945B"/>
<path d="M53.2354 51.2764C50.0225 40.9983 53.5473 38.7524 53.2198 33.6055C52.8766 28.4587 48.8995 22.9219 48.8995 22.9219C48.8995 22.9219 48.6968 22.9063 48.3536 22.8751C48.0729 22.7347 48.0105 21.6118 48.0105 20.442C48.0105 19.0228 48.1197 17.5099 48.1197 17.5099L43.3472 16.5741L43.0664 16.5117C43.0664 19.8338 42.193 22.0173 41.5692 22.532C40.9609 22.5944 38.4187 22.9219 36.8434 23.5769C36.2507 23.8265 35.814 24.1228 35.6425 24.4659C34.3324 27.3513 33.0223 34.6349 32.1021 39.8285C31.5874 42.7295 31.1975 44.9754 30.9947 45.4433C30.4332 46.7534 28.7332 53.8498 27.2671 57.515C27.0956 57.8737 26.6433 58.8095 26.1598 59.1214C25.5515 59.4957 24.6937 60.4159 24.8497 61.149C25.0212 61.8664 25.1772 63.005 25.9258 63.005C26.269 63.005 26.7836 62.3811 27.2827 61.6169C27.6259 61.804 27.7038 61.2426 28.0782 60.915C28.4837 60.5563 28.6864 59.0279 28.6864 59.0279C28.9048 58.3884 29.0919 58.2636 29.0919 58.2636C29.0919 58.2636 35.3617 47.8607 35.9388 45.1625C36.126 44.2735 36.5783 42.5111 37.1085 40.546C37.1917 40.2444 37.2749 39.9429 37.3581 39.6414C38.2939 42.1836 38.7774 43.3533 38.7462 44.4607C38.715 46.0203 37.6544 47.4396 35.4241 52.4149C34.2076 55.1599 56.5262 61.7884 53.2354 51.2764Z" fill="#FFB27D"/>
<path d="M48.1192 17.51C48.1192 17.51 48.01 19.0229 48.01 20.4422C45.343 20.3642 43.9238 17.9155 43.3467 16.5742L48.1192 17.51Z" fill="#E8945B"/>
<path d="M42.8483 16.0443C42.8483 16.0443 41.4446 13.8296 41.1171 11.9424C40.8675 10.5855 41.5538 5.57907 46.5915 6.29651C46.5915 6.29651 48.0575 6.43687 49.43 7.37266C50.5218 8.10569 52.1126 9.69654 50.3346 14.0792L49.8823 15.5608L42.8483 16.0443Z" fill="#233862"/>
<path d="M49.024 18.8523C49.024 18.8523 42.6918 18.9615 42.6918 15.0156C42.6762 11.0853 41.8652 8.43385 45.9047 8.1999C49.9442 7.96595 50.724 9.47881 51.0515 10.7889C51.3635 12.099 50.6616 18.7276 49.024 18.8523Z" fill="#FFB27D"/>
<path d="M57.8518 110.715L55.8087 111.214C55.8087 111.214 52.627 106.847 49.9756 100.873C48.2911 97.0991 46.8251 92.7788 46.5287 88.7705C46.3884 86.9457 46.4975 85.1989 46.9342 83.5925C46.9342 83.5925 46.3728 79.7714 45.5929 74.6869C44.7195 69.0253 43.6122 61.7885 42.7388 56.4701L43.269 56.2986L54.5921 52.9453C54.5921 52.9453 56.8068 61.617 55.7931 75.2328C55.5903 78.0245 55.2472 81.0191 54.7169 84.1852C53.8123 89.6127 54.1866 95.0715 54.9353 99.6101C55.9958 106.098 57.8518 110.715 57.8518 110.715Z" fill="#F99F46"/>
<path opacity="0.4" d="M55.7931 75.2328L46.5287 88.7705C46.3884 86.9457 46.4975 85.1989 46.9342 83.5925C46.9342 83.5925 46.3728 79.7713 45.5929 74.6869C44.7195 69.0253 43.6122 61.7885 42.7388 56.4701L43.269 56.2986L54.5921 52.9453C54.5921 52.9453 56.8068 61.617 55.7931 75.2328Z" fill="#D86713"/>
<path d="M45.8581 84.496C45.4526 85.2446 41.4755 90.0327 37.4671 95.3356C37.124 95.7879 36.7653 96.2714 36.4066 96.786C34.0515 100.108 31.3377 104.444 29.7157 106.549C28.234 108.468 26.9239 106.066 27.6569 104.35C28.8267 101.652 29.8248 96.9264 30.9634 93.464C31.2285 92.653 31.4937 91.9199 31.7744 91.2961C33.0065 88.5511 35.3772 85.5565 38.2782 82.5932C38.7772 82.0785 34.0827 69.7884 34.3946 60.3213C34.5194 56.5626 35.0341 53.2717 36.235 51.2598L48.1352 51.8368C48.1352 51.8368 49.7728 77.15 45.8581 84.496Z" fill="#F99F46"/>
<path d="M50.8645 8.60376C49.882 7.41843 49.1489 7.66798 48.7278 8.0267C45.3434 6.13952 41.9745 8.18266 41.9745 8.18266C41.5534 11.0056 40.5864 13.3919 40.5864 13.3919C40.5864 13.3919 41.725 14.0937 44.392 13.4075C45.203 13.2047 45.9204 12.6277 46.5443 11.9258C45.4681 13.735 44.0021 15.0295 44.0021 15.0295C47.1838 13.5635 48.4627 9.14964 48.5874 8.68175C48.9618 9.02487 49.726 9.77351 49.9599 10.5221C50.2719 11.5203 50.4122 13.5947 51.0205 13.5167C51.0205 13.5167 52.3306 10.3818 50.8645 8.60376Z" fill="#233862"/>
<path d="M53.9995 34.9639C54.2958 33.1547 54.405 31.5639 54.3738 30.207C54.2802 26.5574 53.204 24.5143 52.393 23.6876C52.1591 23.5005 51.9251 23.3913 50.9737 23.2353C50.5058 23.1418 49.8352 23.0482 48.8994 22.9234C48.8994 22.9234 48.4939 22.8766 48.4939 22.8922C48.6655 23.2041 50.537 25.9647 50.3655 26.8693C50.1783 27.8207 42.9727 27.6803 42.4112 27.1501C41.8342 26.6354 40.3525 22.6895 40.3525 22.6895C40.3525 22.6895 37.4204 22.9858 35.9855 24.0308C35.8139 24.1555 35.7047 24.3271 35.6268 24.4675C34.0983 27.384 32.5854 34.7144 31.5093 39.9392C34.1139 41.3741 36.3754 40.953 37.0772 40.7658C36.157 46.7861 34.0671 53.2586 33.9423 56.0036C33.9111 56.4091 33.9423 56.7211 34.0047 56.955C34.2699 57.7504 35.1277 58.1092 37.2332 57.8908C38.5277 57.766 39.0892 55.6137 39.3543 53.7733C40.1186 56.3935 41.1947 57.8752 42.5984 58.1872C44.6416 58.6395 54.9197 59.8872 55.5903 55.0055C56.3389 49.6247 54.1242 40.1108 53.9995 34.9639Z" fill="#A8D29F"/>
<path d="M49.9761 100.873C52.6275 106.846 55.8092 111.213 55.8092 111.213L57.8523 110.714C57.8523 110.714 56.0119 106.098 54.9358 99.6094C54.2963 100.077 52.9238 100.686 49.9761 100.873Z" fill="#FFB27D"/>
<path d="M54.2182 113.508H55.6063C56.0742 113.43 56.4173 113.306 56.8852 113.243C57.6182 113.15 57.9458 113.446 58.0082 113.508C58.0186 113.519 58.0238 113.524 58.0238 113.524H63.9348C64.0908 113.306 63.9504 112.822 63.8101 112.463C63.7165 112.214 63.4981 112.027 63.2486 111.949C62.6247 111.777 61.3926 111.606 60.2541 110.592C59.6146 110.015 57.1815 108.471 57.1815 108.471H57.1659C57.1192 108.471 56.8696 108.549 55.7467 109.484C55.1852 109.968 54.2026 108.798 54.2026 108.798C54.2026 108.798 54.0154 108.954 53.8907 109.235C53.7815 109.453 53.6879 109.765 53.7503 110.14C53.8439 110.67 53.5631 111.668 53.3292 112.339C53.1888 112.744 53.0797 113.025 53.0797 113.025C53.0797 113.025 53.0173 113.352 54.2182 113.508Z" fill="#0052CC"/>
<path d="M54.2182 113.508H55.6063C56.0742 113.43 56.4173 113.305 56.8852 113.242C57.6182 113.149 57.9458 113.445 58.0082 113.508C58.0186 113.518 58.0238 113.523 58.0238 113.523H63.9348C64.0908 113.305 63.9504 112.821 63.8101 112.463C63.6229 112.291 63.5761 113.149 63.4825 113.289C63.3734 113.414 58.6476 113.336 58.3825 113.133C58.1017 112.931 57.2907 112.587 56.1522 112.868C55.154 113.102 53.7035 112.494 53.3292 112.338C53.1888 112.743 53.0797 113.024 53.0797 113.024C53.0797 113.024 53.0173 113.352 54.2182 113.508Z" fill="#466AA5"/>
<path d="M33.9424 56.0027C35.3461 55.5348 37.1553 54.2715 39.3388 51.4641C45.0939 44.0089 39.8223 35.2593 39.1204 35.1033C38.4186 34.9318 37.0773 40.7649 37.0773 40.7649C36.1571 46.7851 34.0672 53.2577 33.9424 56.0027Z" fill="#82B378"/>
<path d="M47.1997 16.5258C47.1997 16.5258 47.3245 17.0093 48.5254 16.9157C48.5254 16.9157 49.5392 16.8533 49.508 16.3074C49.508 16.3074 48.5098 15.9487 47.1997 16.5258Z" fill="white"/>
<path d="M36.4066 96.7869C34.0515 100.109 31.3377 104.445 29.7157 106.55C28.234 108.469 26.9239 106.067 27.6569 104.351C28.8267 101.653 29.8248 96.9273 30.9634 93.4648C31.7276 94.619 33.2873 96.1163 36.4066 96.7869Z" fill="#FFB27D"/>
<path d="M32.8661 113.522C32.8661 113.522 29.4037 113.086 28.5459 111.963C28.4367 111.838 28.2183 110.621 28.2183 110.606C28.2027 110.512 28.078 110.06 27.4073 109.717C26.955 109.498 26.5651 109.452 26.1284 109.202C25.8165 109.03 25.2238 108.625 24.9431 108.407C23.9605 107.627 24.2412 107.33 24.2412 107.33C24.2412 107.33 24.5064 107.143 24.8651 106.878C24.9587 106.805 25.0574 106.727 25.1614 106.644C25.7073 106.208 26.3 105.662 26.5027 105.241C26.6587 104.882 26.9082 104.663 27.1266 104.523C27.4073 104.367 27.6569 104.336 27.6569 104.336C27.6569 104.336 27.8284 105.911 28.6083 105.833C30.0899 105.662 30.3551 105.74 30.4019 105.771L30.4175 105.786C30.4175 105.786 31.2753 108.235 31.4936 109.108C31.8835 110.637 32.5542 111.292 32.9597 111.838C33.0533 111.978 33.1312 112.119 33.1624 112.275C33.334 112.852 33.0689 113.444 32.8661 113.522Z" fill="#0052CC"/>
<path d="M32.8661 113.523C32.8661 113.523 29.4037 113.086 28.5459 111.963C28.4367 111.838 28.2183 110.622 28.2183 110.606C28.2027 110.512 28.078 110.06 27.4073 109.717C26.955 109.499 26.5651 109.452 26.1284 109.202C25.8165 109.031 25.2238 108.625 24.9431 108.407C23.9605 107.627 24.2412 107.331 24.2412 107.331C24.2412 107.331 24.5064 107.144 24.8651 106.878C24.9587 106.806 25.0574 106.728 25.1614 106.645C25.2238 107.097 25.4266 107.923 26.2064 108.36C27.3137 108.984 28.4835 109.951 28.7642 110.637C29.045 111.324 29.2009 111.932 29.8872 112.259C30.589 112.602 32.4606 112.93 32.601 112.883C32.7101 112.852 32.8817 112.4 33.1624 112.275C33.334 112.852 33.0689 113.445 32.8661 113.523Z" fill="#466AA5"/>
</svg>
