<svg width="50" height="50" viewBox="0 0 50 50" fill="none" xmlns="http://www.w3.org/2000/svg">
<rect width="50" height="50" rx="25" fill="#2563EB"/>
<g clip-path="url(#clip0_11811_497)">
<path d="M13.75 19.2628H25.9615C26.2984 20.6238 27.5295 21.636 28.9931 21.636C30.4567 21.636 31.6878 20.6238 32.0246 19.2628H36.25C36.6642 19.2628 37 18.927 37 18.5128C37 18.0986 36.6642 17.7628 36.25 17.7628H32.0246C31.6878 16.4019 30.4567 15.3896 28.993 15.3896C27.5294 15.3896 26.2983 16.4019 25.9615 17.7628H13.75C13.3358 17.7628 13 18.0986 13 18.5128C13 18.927 13.3358 19.2628 13.75 19.2628ZM28.9931 16.8896C29.8881 16.8896 30.6163 17.6178 30.6163 18.5128C30.6163 19.4078 29.8881 20.136 28.9931 20.136C28.0981 20.136 27.3699 19.4078 27.3699 18.5128C27.3699 17.6178 28.0981 16.8896 28.9931 16.8896ZM13.75 25.7498H17.9754C18.3123 27.1107 19.5433 28.1229 21.007 28.1229C22.4706 28.1229 23.7017 27.1107 24.0385 25.7498H36.25C36.6642 25.7498 37 25.414 37 24.9998C37 24.5856 36.6642 24.2498 36.25 24.2498H24.0385C23.7016 22.8888 22.4705 21.8766 21.0069 21.8766C19.5433 21.8766 18.3122 22.8888 17.9754 24.2498H13.75C13.3358 24.2498 13 24.5856 13 24.9998C13 25.414 13.3358 25.7498 13.75 25.7498ZM21.0069 23.3766C21.9019 23.3766 22.6301 24.1047 22.6301 24.9998C22.6301 25.8948 21.9019 26.6229 21.0069 26.6229C20.1119 26.6229 19.3837 25.8948 19.3837 24.9998C19.3837 24.1047 20.1119 23.3766 21.0069 23.3766ZM36.25 30.7367H32.0246C31.6877 29.3757 30.4567 28.3635 28.993 28.3635C27.5294 28.3635 26.2983 29.3757 25.9615 30.7367H13.75C13.3358 30.7367 13 31.0725 13 31.4867C13 31.9009 13.3358 32.2367 13.75 32.2367H25.9615C26.2984 33.5977 27.5295 34.6099 28.9931 34.6099C30.4567 34.6099 31.6878 33.5977 32.0246 32.2367H36.25C36.6642 32.2367 37 31.9009 37 31.4867C37 31.0725 36.6642 30.7367 36.25 30.7367ZM28.9931 33.1099C28.0981 33.1099 27.3699 32.3817 27.3699 31.4867C27.3699 30.5917 28.0981 29.8635 28.9931 29.8635C29.8881 29.8635 30.6163 30.5917 30.6163 31.4867C30.6163 32.3817 29.8881 33.1099 28.9931 33.1099Z" fill="white"/>
</g>
<defs>
<clipPath id="clip0_11811_497">
<rect width="24" height="24" fill="white" transform="translate(13 13)"/>
</clipPath>
</defs>
</svg>
